<?xml version="1.0" encoding="utf-8"?>
<!-- Generator: Adobe Illustrator 25.2.3, SVG Export Plug-In . SVG Version: 6.00 Build 0)  -->
<svg version="1.1" id="Livello_1" xmlns="http://www.w3.org/2000/svg" xmlns:xlink="http://www.w3.org/1999/xlink" x="0px" y="0px"
	 viewBox="0 0 32 32" style="enable-background:new 0 0 32 32;" xml:space="preserve">
<image style="display:none;overflow:visible;" width="32" height="32" xlink:href="../../../Front-end Mentor/2 junior/huddle-landing-page-with-alternating-feature-blocks-master/images/favicon-32x32.png" >
</image>
<path d="M16,0C7.2,0,0,7.2,0,16s7.2,16,16,16s16-7.2,16-16S24.8,0,16,0z M15,8.2h2v10.9h-2V8.2z M18.7,24.1c-10.5,0-12-8.8-12-8.9
	l1-0.2l1-0.2c0,0.3,1.3,7.2,10.1,7.2V24.1z M25.2,12.3L20.9,14v0l4.3,1.7v1.5l-5.9-2.5v-1.3l5.9-2.5V12.3z"/>
</svg>
