<svg xmlns="http://www.w3.org/2000/svg" viewBox="0 0 781.31 619.58"><defs><style>.cls-1{fill:#fff1e6;}.cls-2{fill:#1f2328;}.cls-3{fill:#d12a2a;}.cls-4{fill:#f7e2d9;}.cls-5{fill:#fcd3c6;}.cls-6{fill:#e4d5d5;}.cls-7{fill:#eab193;}.cls-8{fill:#1b2224;}.cls-9{fill:#f9e9e9;}.cls-10{fill:#637698;}.cls-11{fill:#2b4b6c;}.cls-12{fill:#ecd8d8;}.cls-13{fill:#bf9a72;}.cls-14{fill:#f1c08c;}.cls-15{fill:#ddab9f;}.cls-16{fill:#d1c6bf;}.cls-17{fill:#f9c2a5;}.cls-18{fill:#e5524d;}.cls-19{fill:#010101;}.cls-20{fill:#dbb388;}.cls-21{fill:#090909;}.cls-22{fill:#cecfd0;}.cls-23{fill:#cdcdcf;}.cls-24{fill:#ca8989;}.cls-25{fill:#cacbce;}.cls-26{fill:#7585a2;}.cls-27{fill:#ca8a8a;}.cls-28{fill:#6e7f9e;}.cls-29{fill:#7b8aa5;}.cls-30{fill:#67799b;}.cls-31{fill:#7383a1;}.cls-32{fill:#0e1012;}.cls-33{fill:#3a4863;}.cls-34{fill:#021934;}.cls-35{fill:#cacbcc;}.cls-36{fill:#cb9c94;}.cls-37{fill:#d58484;}.cls-38{fill:#cc8b8b;}.cls-39{fill:#d3a29a;}.cls-40{fill:#f5c6bc;}.cls-41{fill:#ebb1a7;}.cls-42{fill:#f4c5ba;}.cls-43{fill:#f4c2b7;}.cls-44{fill:#f3b8aa;}.cls-45{fill:#f9c2b8;}.cls-46{fill:#724f3d;}.cls-47{fill:#d1a097;}.cls-48{fill:#d2a198;}.cls-49{fill:#d1d1d1;}.cls-50{fill:#a6a6a6;}.cls-51{fill:#3a4964;}.cls-52{fill:#9ba5b6;}.cls-53{fill:#081e3a;}.cls-54{fill:#c1c3c5;}.cls-55{fill:#ab8862;}.cls-56{fill:#050404;}.cls-57{fill:#6a7b9c;}.cls-58{fill:#9fa7b7;}.cls-59{fill:#b1b7c1;}.cls-60{fill:#8390a9;}.cls-61{fill:#616871;}.cls-62{fill:#fafafa;}.cls-63{fill:#b38080;}.cls-64{fill:#ffe1d5;}</style></defs><g id="Livello_2" data-name="Livello 2"><g id="Livello_1-2" data-name="Livello 1"><path class="cls-1" d="M247.4,602.94c-1.46.08-2.88.22-3,2.15-1.88.84-.36,1.91-.2,2.89-.77,2.3-2.73,3.2-4.76,4-.63-.94-.69-2.08-1.24-3.17.08,1.17,1.39,2.18.23,3.31-4.9,1.75-9.76,1.26-14.56-.35a9.53,9.53,0,0,1-6-5.55c-2.9-6.71-4.66-13.76-6.38-20.83-.46-1.88-.51-3.92-2.07-5.37-2.72-5.06-3-10.84-4.73-16.18-1.06-3.21-1.05-7.31-6.22-6.87-.72.06-1.44-.77-2.13-1.23-13.27-8.74-27.57-10-42.59-5.79-3.67,1-7.3,2.19-9.64,2.59,7-2.61,15.77-2.13,24.42-1.66,15.22.81,21.79,15.8,20.63,27.48-.55,5.46-1.93,10.88-6.69,14.57-3.29,2.34-6.11,5.39-10.52,6.49,4.43,2,9.43,1.69,12.47,5.65-.91.73-1.76.71-2,.43a5.39,5.39,0,0,1,3.07,4.6c-3.11,5.5-8.68,5.53-13.87,5.88-11.13.75-22-1.47-32.89-3.44-2.14-.39-4.28-.3-6.4-.64-9.36-1.12-18.7-2.42-28-4-3.45-.61-6.66-.77-9.64,2.21-2.41,2.41-6.18,1.95-9.49,2-2.59,0-5.16,1.06-8.07.16-.36,0,.28,1.16.18.5,1.14-.14,2.3-.43,3.29.45-2.13,1.4-4.54.79-6.82.81-12.32.15-24.69-.4-37,.43-10,.68-19.92-.12-29.87-.37-2.71-.07-6.64.44-7-3-.27-2.9,3.52-3.39,6-4.26,3.57-1.24,7.25-.77,10.89-.72,1.81,0,3,.26,2.82-2.47-.33-4.08,2.31-6.42,6.06-7.41a28.54,28.54,0,0,1,13.81-.39c2.13.48,5.13,1.63,4.37-3.09-.36-2.25,1.65-3.68,4.3-3.79,5.88-.25,11.11,1.91,16.25,4.25,5.59,2.55,11,5.46,16.53,8.2,4.66,2.32,6.48,1.83,9.6-2.51,3.25-4.52,5.06-9.71,6.91-14.88,4.38-12.2,8-24.66,13.14-36.59,4.48-10.39,11.21-19.23,18.63-27.57,16.58-18.63,33.81-36.7,48.62-56.84,3.62-4.91,7.67-9.65,9.44-15.71,4-.43,7.64,1.49,11.66,1.56,19.81.34,38.38-5.16,56.9-11.15,2.75-.89,5.41-2.79,8.57-1.43,2.65,12.29,6.49,24.31,8.13,36.86A93.84,93.84,0,0,1,269,512.91a101.5,101.5,0,0,1-19.59,36.66,8.25,8.25,0,0,0-2,5.38c-.14,3.43.69,7-.81,10.3-2.29-3.41-1.57-6.9-.81-10-3,4.48-7.47,8.45-11.72,12.63a10,10,0,0,0-3.27,8c.12,2.49.09,5,0,7.49-.19,6.06,1.56,10.54,8,12.67A14.26,14.26,0,0,1,247.4,602.94Z"/><path class="cls-1" d="M294.32,351.2c1.45,10.79-3.35,18.93-11,25.87-5.23.5-10.31,1.47-15.72.23s-9.19-3.36-10.82-8.88c-.68-2.33-1.45-4.84-3.2-5.52,1.11.22,1.7,2.07,2.46,3.69,4.5,9.63,12.47,13.53,22.85,11a12.92,12.92,0,0,1,4.4-.51c1.38,5.18,0,7.68-5.25,9-4,1-8.07,1.83-12.07,2.88-6.05,1.59-12,11.79-10.43,17.81a5.45,5.45,0,0,0,2.56,3.57c5.64,2.92,7.88,7.75,8.24,13.76-.29,3.31-3.18,4.07-5.43,5.18-12.84,6.29-26.58,9.66-40.58,12-7.05,1.2-14.13,2.45-21.34,2.1-4.17-.2-8.28-.7-11.64-3.59a2.55,2.55,0,0,0,.46-3.15c-2-3.82-1-7.47,1.18-10.81,1.58-2.47,1.57-4.88,1-7.61-1.06-5-2.59-10-2.9-15.15,2.92-.25,1.52,2.55,2.56,3.63,4,9,9.29,12.1,18.81,10.94,5-1.13,10-2.17,12.52-7.64.78-1.72,2.91-2.11,4.43-3.09q9.24-6,4.83-16.25c-1.53-3.55-4.18-6.34-6.25-9.52,1.72,2.93,4.15,5.37,5.66,8.46,3.78,7.7,2.25,13.4-5.05,17.67a15.81,15.81,0,0,0-5.19,5c-2.83,4.08-7.76,4.73-12.32,5.68-9.28.16-13.91-2.92-17.52-11.66-.58-2.88-2.7-5.36-2.19-8.52a50.75,50.75,0,0,1-.21-12.94c-.92,4.25.56,8.47-.88,12.41-4-14.61-1.64-27.81,8.64-39.3,6.62-7.4,14.61-12.9,23.18-17.8s16.4-3.82,24,2.11c5.11,4,5.11,3.83,10.7.22,6-3.86,11.67-8.2,18.58-10.38,1.24,2.77-2.69,5.71.15,8.35,2.28,2.12,5.39,1,8.06,1.72a12.32,12.32,0,0,1,6.45,4.34C288.24,349.27,290.82,351,294.32,351.2Z"/><path class="cls-2" d="M531.48,520q-7.08-13-14.15-26c-4.21-3.3-5.3-8.24-6.83-12.94-10.59-20.85-21.32-41.63-31.73-62.57-10.11-20.34-20-40.79-28-62.13a48.65,48.65,0,0,1-3.27-12.49c-1.06-11.59,4.32-20.67,15.66-26.5,7.7-4,15.94-6.53,24.13-9.22,3.31-1.09,6.64-2.12,10-3.17,1.71-2.28,4.25-2.43,6.74-2.44q38.79-.15,77.59,0a12.45,12.45,0,0,1,4.86.87c5.17,2.68,9.78,6.32,15.08,8.81,15,7,30.17,9.1,46,2.92a32.68,32.68,0,0,0,10.26-6.05c1.06-1,1.87-2.47,3.71-2.09,2.41,4.42.82,8.69-.53,12.94a33.61,33.61,0,0,1-8,13c-11.15,11.75-26.05,16.35-40.81,21-16.12,5.07-32.87,6.93-49.63,8.52-7.28.68-14.56,1.37-21.84,2a34.17,34.17,0,0,0-5.43.69c-4.52.77-8.48,0-11.86-3.49a46.21,46.21,0,0,0-10-7.31,155,155,0,0,0,12.71,10.78,14.3,14.3,0,0,1,5.47,8.59c8.82,38.23,17,76.61,25.92,114.8.61,2.6,1.38,5.14,2,7.73.18,1,.45,2,.72,3,.41,2.24,1,4.47,1.24,6.74-.23,5.73-4.76,7.63-8.85,9.91a70,70,0,0,1-10.06,3.5c-2.93.88-6,.9-9,1.36A2.42,2.42,0,0,1,531.48,520Z"/><path class="cls-3" d="M639.49,72.16a9.75,9.75,0,0,0-1.89,6c2.35,0,4.64,0,6.93,0,14.23.06,23.54,10.87,21.45,24.95a34.25,34.25,0,0,1-3.59,11.84c-1.26,2.26-.75,3.46,1.34,4.74a30.17,30.17,0,0,1,6.69,5.93c9.5,10.77,6.88,23.57-6.12,29.83-3.37,1-3.8-1.86-4.69-3.83-2.49-5.5-5.55-10.52-10.8-13.86-11.35-10.64-25.54-15.63-40-20.08a35.88,35.88,0,0,1-6.13-2c-2.61-1.49-2.63-4-2.76-6.57.05-2.72-.21-5.47.46-8.16,4-5.6,8.71-10.73,11.81-17,1-2,3.54-2.26,5.56-3,4.34-1.47,7.49-4.2,8.81-8.69.67-2.28.83-4.7-1-6.56s-4-1.19-6.07-.56c-.94.28-1.83.75-2.8,1a31.58,31.58,0,0,1-21.18-3.81A11.39,11.39,0,0,0,586.48,61a13,13,0,0,1-4.44.39c-1.61-.15-3.67,0-3.93-2.14-.22-1.8,1.53-2.35,2.9-2.94,4.53-2,4.54-2,1.69-5.85a42.74,42.74,0,0,1-4.27-7.27,13.09,13.09,0,0,0-2.75-4.38c-2.67,7.4-8.34,11.09-14.84,13.91a5,5,0,0,0-3,5.22c.22,2.08,1.66,2.2,3.27,2.08a14.82,14.82,0,0,1,4.46.15c1.34.31,2.72.84,2.81,2.39.1,1.88-1.46,2.39-3,2.74a25.12,25.12,0,0,1-3.47.29c-1.8.13-2.92.91-2.34,2.86,1,3.3-.12,6.6.13,9.9a36.33,36.33,0,0,0,1.4,12.18c2,7.15,7.12,11.27,13.7,14,2.29.94,4.83,1.15,7,2.38,3,3,3.56,6.46,1.5,10.25-1.86,2.26-4.64,3.12-7,4.53a147.66,147.66,0,0,0-22.41,15.44c-13.77,14.17-22.81,31.26-30.48,49.21-2.28,5.34-3.91,10.94-6.81,16a2.52,2.52,0,0,1-2.13.35c-4.05-3.25-6.77-7.65-9.93-11.64-4.54-5.71-9.16-11.38-14.78-16-5.43-4.45-6.63-10.6-8.2-16.74,4.84-3.95,4.87-8.08,2.61-14-6.64-17.37-.53-30.59,16.46-38.09.75-.33,1.49-.68,2.63-1.22-.7-1-1.31-1.9-1.88-2.8-8.72-13.56-6.17-28.52,6.52-38.54a37.64,37.64,0,0,1,21.1-8c3-.21,4.34-1.52,5.64-3.85a96.69,96.69,0,0,1,9.7-14.47A32.47,32.47,0,0,1,567,25.08a23.92,23.92,0,0,0,10.61-3.54c10.35-6.36,20.95-4.94,31.35.22A44.67,44.67,0,0,1,621,30.48c6.16,6.27,11.13,13.58,17.51,19.71,3.47,3.34,4.51,8,3.37,13-.6,2.59-.72,5.31-1.67,7.79"/><path class="cls-4" d="M336.33,288c1.4-1.32,3.15-.81,4.76-.82q9.48-.09,19,0c2.51,0,3.77-.46,2.73-3.46-3.81-11-7.4-22-11.15-33-5.15-15.07-10.3-30.14-15.59-45.16-1.24-3.5-.18-4.41,3.25-4.4,28.29.07,56.58-.3,84.86.26,8.1.16,16.24.58,24.36.61,2.85,0,4,1.14,5,3.71,6.82,19.4,13.68,38.79,20.77,58.09,2.39,6.49,3.95,13.31,7.34,19.42,1.42,1.55,2.22,3.19.68,5.14-2.19,1.61-4.75,1.36-7.21,1.36q-65.61,0-131.2,0C341.26,289.76,338.46,290.25,336.33,288Z"/><path class="cls-5" d="M649.66,137c6.07,3.2,8.56,9.14,11.4,14.82.75,1.5,2,4.06,2,4.06s.15,1.19.29,2.28a8.54,8.54,0,0,1,2.78,5.15c6,27,9.93,54.27,8.56,82-.49,9.94-2.81,19.44-10,27a61.59,61.59,0,0,1-24.74,11.91,21.62,21.62,0,0,0-4.23.64,10.8,10.8,0,0,1-1.37.3,20.86,20.86,0,0,0-4.08.78,11,11,0,0,1-2.11.38,17.56,17.56,0,0,0-5,.73,13.82,13.82,0,0,1-3.07.4c-2.67.1-5.37-.22-8,.72-11.34.81-22.57.43-33.52-3-1.91-.6-4-1-5.51-2.27-5.63-4.86-12.5-5.55-19.41-6.54-3.68-.52-7.81-.95-9-5.67a9.11,9.11,0,0,1,2.8-5.88c4.9-.54,9.73.54,14.24.67-3-.71-6.55-.35-10-.77-2.4-.3-4.45-.38-4.14-3.47.33-3.31,2.76-2.67,4.9-2.38.66.09,1.31.23,2,.26,3.56-.41,7,2.15,11.36.25-.13.05-1-.85-.71-.24.1.25,0,.37-.1.45-1.88,1-3.82.51-5.75.22A42.1,42.1,0,0,0,548,258.72c-2.09-1-2.9-3.08-4.14-4.81-.39-2.3.69-3.82,2.61-4.9,7.48-2.51,15.18-1.07,22.78-1.16a45.32,45.32,0,0,0,9.37-1c14.33-3.15,28.77-5.42,43.5-5.22,8.08,1.4,16.25,2,24.41,2.85.66.09.1-1,.25-.39a71.36,71.36,0,0,1-11.76-1c-9.34-1.62-9.7-1.65-9.09-11.35,1.45-23,.72-46.23,5.1-69,1.46-7.56,3.15-15,7.44-21.56C641.77,136.09,644.67,135.1,649.66,137Z"/><path class="cls-6" d="M336.33,288q28.46,0,56.91.07,41.94,0,83.88,0c1.75,0,3.7.68,5.22-.87,1.86-1,3.89-.67,5.87-.68,23.12-.12,46.25.33,69.37-.27,18-.16,35.92,2.06,53.88,1.27,17-.75,33.92-1.14,50.9-.87,11.43-.32,22.83.39,34.25.81,19.41.71,38.87.18,58.32.22,1.78,0,3.65-.53,5.35.53,0,4-.07,8,.17,11.94.19,3-.87,4-4,4-11.78-.14-23.57,0-35.36,0a18.17,18.17,0,0,1-15.74,0l-15,0c-1.88,1.54-4.1,1.54-6.35,1.43-7.62.13-15.23.22-22.84,0-22.82.31-45.64.07-68.46.13-1.84,0-3.6-.65-5.45-.63-1.8-1-3.76-1.05-5.77-1.05q-38.44,0-76.9,0a36.54,36.54,0,0,0-7.32,1c-1.1-1.56-2.74-.92-4.13-.92q-48.42,0-96.84,0a18.15,18.15,0,0,1-15.73,0c-13.59,0-27.17-.16-40.76,0-3.5,0-4.86-1-4.4-4.48C335.94,295.83,334.49,291.81,336.33,288Z"/><path class="cls-7" d="M481.59,158.31a7.19,7.19,0,0,1,1.28,2.1c1.67,8.87,8.59,13.92,14.22,20A189,189,0,0,1,514.42,202c.6.81,1.76,1,2.2,2a223.55,223.55,0,0,1,10.9,27.81c-2.06-9.71-7.18-19.56-11.41-29.74,8.2-23,18.16-45.08,34.76-63.51.75-.84,1.3-1.93,2.52-2.27,1.58,2,1.59,4-.16,5.93-2.31,1.32-1.37,3.74-1.78,5.64a301.86,301.86,0,0,0-6.62,72.69c.11,4.16,1.3,8.22,1,12.4-.17,2-.1,4-.11,6.06a66.88,66.88,0,0,1-2.2,10.94c-.5,1.75-1.3,3.34-3.14,4.1-6,1.11-11.75-.92-17.6-1.55-7.34-.8-14.6-1.91-21.55,1.69-14.75-7.89-23.82-20.78-30.8-35.4a82,82,0,0,1-8.06-36.55c0-3.53-1.78-6.68-2.55-10.07-1-4.6-.82-8.55,3.77-11.15,5.52,2,10.2-.37,14.84-2.91Z"/><path class="cls-8" d="M380.59,304.17l15.73,0q-16.8,86.69-33.59,173.37-13.23,68.33-26.32,136.67c-.71,3.76-1.89,5.46-5.94,5-3.26-.39-6.6-.08-10.25-.08,2.92-15.29,5.74-30.13,8.59-45q14.81-77.16,29.65-154.31Q369.22,364,380,308.12C380.25,306.81,380.39,305.48,380.59,304.17Z"/><path class="cls-8" d="M705.4,304.15l15.74,0q6.35,33.32,12.69,66.65,13.73,71.54,27.49,143.07,9.75,50.72,19.49,101.42c.21,1.12.34,2.25.5,3.3-.32.18-.46.33-.61.33-4.48.06-9.73,1.57-13.23-.26s-2.53-7.72-3.33-11.85q-23.53-121-46.95-242Q711.31,334.52,705.4,304.15Z"/><path class="cls-9" d="M760.28,288.22l-91.46-.12c-2.16,0-4.32-.1-6.49-.15-2.71-5.47-1.76-10.7,1-15.8,3.51-5.35,7.49-10.37,8.54-17.06,2.06-13.23,1.79-26.43.67-39.7-.73-8.74-1.75-17.41-3.1-26.09-1.62-10.47-3.8-20.81-6.15-31.12,9.28,0,18.55-.56,27.5,2.93,7.75,3,15.23,9.84,14.69,20.62-.59,11.79-3.06,23.24-4.57,34.86-1.59,12.26-3.69,24.46-5.65,36.67-1.65,10.28-2.33,20.66-3.6,31-.45,3.62,1.76,2.91,3.59,2.91,13.47.05,26.94,0,40.41,0,6.65,0,13.3,0,19.95,0C757.23,287.22,759,286.55,760.28,288.22Z"/><path class="cls-10" d="M531.48,520l1.83,0c11.05-2,17.78,5.19,24.75,11.79,1.41,1.33,2.25,3.2,4.06,4.68a25.73,25.73,0,0,0-8.17-9.94c-1.68-1.21-3.8-2.2-4.05-4.72.43-2.48.88-4.95,2.46-7,3.22-2.38,7.88-3.4,8.07-8.62,3.79-1.17,3.65,1.83,4.28,4,1.7,5.55,6.22,9.15,9.6,13.5,2.75,3.53,5.75,6.75,5.26,12.09,1.84-3.61,4-2.2,6-1.45,1.62.82,3.25,1.64,4.84,2.54,8.45,4.77,10.27,11.64,5.15,20-4.51,7.38-10.31,13.77-16,20.24-1.62,1.84-3.75,3.36-3.88,6.15-1.18,2.41-4,3.89-3.86,7-.5,1.9-2.19,2.73-3.49,3.9-1.42,2.63-3,5.18-4.22,7.91-2.63,6.07-7.53,9.17-13.62,10.63a79.26,79.26,0,0,1-42.36-1.31,21.08,21.08,0,0,1-3.26-1.25c-4.25-2.08-8.7-4.16-8.36-10,.36-6.39.87-12.92,8.13-15.73,6.5-2.52,13.1-4.81,19.65-7.19,2.24.17,3.41,1.94,4.77,3.33,3.51,3.6,7.19,6.54,12.88,4.11-.51-2-2.5-3.09-3.88-4.63-.74-.83-2.16-1.53-1.61-2.81s2.18-1.22,3.52-1.19c1.93.06,3.78,1.41,6,.34-.68-1.93-3.2-1.74-3.91-3.43a1.7,1.7,0,0,1,1.08-1.66c1.58-.74,3.25,0,5-.31-1-1.79-3-1.61-4.37-2.37-1-.54-2.51-.8-2.43-2.12s1.6-1.4,2.71-1.6a13.41,13.41,0,0,0,2.43-.34c-1.11-1.4-4.07-.86-4.06-3,0-2.38,2.76-2.39,4.39-3.33.57-.33-.14.11.41-.26s.35-.55-.15-.69c-.69-.08-1.36,0-2-.17-1.11-.2-2.55-.19-2.71-1.62-.13-1.12,1.14-1.47,2-2,1.38-.82,3-1.36,3.42-3.21-2-1.32-5.37,1.18-6.25-1.65-.67-2.16,2.49-3.13,3.58-4.9a2.46,2.46,0,0,0,.59-2c-2.61-1.43-6,3.23-8.33-.89-1.72-4.61-3.41-9.23-5.18-13.81C531.35,524.87,530.65,522.54,531.48,520Z"/><path class="cls-11" d="M568.37,594.21a6.76,6.76,0,0,1,3.06-4c1-1.57,2.82-1.68,4.38-2.11,2.58-.7,5.09-1.58,7.66-2.29,12.09-3.35,20.14-10.31,20.75-23.59.72-15.6,9.34-28.27,15.11-42,1-2.29,2.18-4.52,1.57-8.48-4.84,12.49-11.9,22.6-16.62,33.87-2.07,4.93-2.14,10.41-3,15.67-1.85,11.47-12.55,21.45-24.07,22.55a2.37,2.37,0,0,1-1.82-.65c-2.06-.3-1.4-1.27-.56-2.28,3.18-3.8,6.34-7.62,9.56-11.38,3.45-4,6.64-8.22,9.7-12.55,5.15-7.28,4-15.65-5-19.59-1.34-.59-2.83-1-3.76-2.29-8.08-7.28-14.86-15.76-21.89-24-.31-2.08.56-4.87-3-5-.67-2.3-1.42-4.58-1.08-7,2-1.92,4.35-1.05,6.6-.63,7.83,1.49,14.35,5.84,21.52,10.15a32.64,32.64,0,0,0-11.37-7.7c-1.47-.65-3.35-.65-4.12-2.47-.07-2.1.13-4.21-.11-6.31,2.43-4.22,6.62-6.5,10.31-9.35a4.51,4.51,0,0,1,2.27,1.74c4.08,4.2,9.25,7,13.75,10.63,2.76,2.24,5.49,4.41,5.49,8.46.12.58,1.27,0,.61.05-.14,0-.17-.06-.2-.18-.93-4.17,2.46-3.29,4.57-3.92,3.75,1.43,7.77,2.15,11.34,4.09,7,6.44,7.65,15.6,1.58,22.26-.06.15-.12.31-.19.46-7.44,14-13.13,28.61-15,44.49-.82,6.94-4.84,11.41-10.72,14.61A74.22,74.22,0,0,1,568.37,594.21Z"/><path class="cls-12" d="M684.27,304.19h6.11c-2,12.16-5.27,23.88-12.21,34.29a60.73,60.73,0,0,1-16,16.16c-1.48,1-3.21,1.77-4,3.55-3.41,2.66-7.52,3.93-11.38,5.69-10.63,2.53-21.28,4.9-32.29,4.9-3.91,1.14-7.92.79-11.91.77s-7.71,0-11.55.31c-4.39-.27-8.8-1.52-13.16.31-4-2.72-8.7-1.59-13-2-7.86-.8-15.72-2-23.68-1.64-1.71-.8-1.81-1.93-.68-3.32,23.48-2.29,47.1-3.54,70-10A164.45,164.45,0,0,0,641,341c4.36-2.25,7.79-5.6,11.39-8.79,11-6.72,21-14.59,28.52-25.16A10.69,10.69,0,0,1,684.27,304.19Z"/><path class="cls-13" d="M647.12,363.22a22.66,22.66,0,0,1,11-5Q665.6,402.9,673,447.62q7.29,44.49,14.39,89c.9,5.57,1.88,11.13,2.68,16.72.28,2,1.29,4.64-1.93,5.26s-2.76-2.21-3.12-4q-6.9-33.92-13.71-67.86c-.52-2.6-.83-5.25-2-7.68-1.11-3.47-3-6.66-3.62-10.32.21-3-.59-5.92-1.18-8.83-4.5-22.06-8.58-44.21-13-66.27a35.54,35.54,0,0,0-1.76-6.87c-.47-5.91-2-11.64-3-17.46C646.35,367.29,645.57,365.17,647.12,363.22Z"/><path class="cls-14" d="M602.48,368.14c4-.32,8.06.63,12-.85,1.63,1.65,2,3.8,2.19,6,1.24,15.72,2.92,31.4,4.36,47.1,0,4.79,1.41,9.55.34,14.37-.37,11,1.78,21.79,2.4,32.71.54,9.25,1.72,18.46,2.6,27.69,1.26,13.35,2.57,26.7,3.76,40.06.82,9.24,1.52,18.49,2.17,27.75.11,1.66.78,3.88-2.09,4.2s-2.72-1.58-3-3.48q-2.36-17.71-4.84-35.41a12.43,12.43,0,0,0-.77-2.3c.59-1.72,1.16-3.45,1.78-5.16,2.3-6.41,1.59-12.07-4.07-16.52-3.07-4.72-2.5-10.25-3.2-15.44-2.19-16.12-4.06-32.28-6.17-48.4-.37-2.15-1-4.23-1.23-6.41.55-3.66-.4-7.22-.71-10.83.17-3.24-1.48-6.22-1.41-9.45-1.31-12-2.76-24-4.23-36C602,374.61,600.64,371.32,602.48,368.14Z"/><path class="cls-15" d="M501.25,254.18c2.48-3.72,5.9-4.55,10.28-4.28,9.65.58,19.09,2.67,28.7,3.36,1.35.52,3-.54,4.2.75,2.5.28,2.76,2.23,3.07,4.14a16.78,16.78,0,0,1,.07,7,10.77,10.77,0,0,1-2.24,4.93c-3,2.89-6.19,3.62-9.85,1.36a26.36,26.36,0,0,1-11.63-6.11c-2.58,4.57-2.13,10.44-6.78,14.35-2-5,.5-9.51.18-15-2.17,3.24-3.83,5.82-5.6,8.33a24.13,24.13,0,0,1-2.65,3c-.84.85-1.9,1.64-3.05.78-.95-.71-.49-1.86-.11-2.76,1.43-3.49,2.92-6.95,4.75-11.26-2.69,1.44-3.39,3.52-4.67,5-2.35,2.8-4.36,5.94-7.47,8s-3.78,1.55-4.14-2.53c-.09-3.34,4-4.13,4.31-7.15-.94,2.89-3.82,4.44-5.22,7.09-3.19,1.66-3.58.15-2.47-2.38a71.64,71.64,0,0,1,7.13-11.77C499.17,257.49,500.19,255.82,501.25,254.18Z"/><path class="cls-16" d="M182.46,593c2.14-4.62,4.78-9,5.31-14.26,1.23-12.31-5.93-26.81-21-26.62-8.75.12-17.54-.51-26.22,1.87,1.36-2.09,3.69-2.1,5.61-2.86,2.15-.85,4.38-1.51,6.61-2.18,16.29-4.86,31.72-3.42,45.7,6.82,3.08,2.25,2.86-.29,3.66-2.68,3.9,9.24,6.48,17.87,7.32,27A51.82,51.82,0,0,1,182.46,593Z"/><path class="cls-16" d="M247.4,602.94c-4.73-2.93-9.16-6.3-14.5-8.29-3.23-1.2-3.08-5-3.34-7.81-.43-4.61-.07-9.3-.16-14a5.76,5.76,0,0,1,2-4.34c4.73-4.86,9.9-9.3,14.38-15.43,1.15,4.44.2,8.35.7,12.13,0,4.62.16,9.26-.2,13.85-.27,3.38.8,4.87,4.06,6,4.77,1.65,9.86,3.52,10.08,10-1.17-.13-1.19.17-.16,3C257.68,604.11,252.41,603.19,247.4,602.94Z"/><path class="cls-17" d="M535.48,271.46a19,19,0,0,0,9.85-1.36c0,2,1.39,2.93,3,3.51a26.39,26.39,0,0,0,5.71,1.58c6.54.81,12.78,1.4,18.67,5.79,7.14,5.3,16.44,5.46,25.17,6.09,4.78.34,9.61.06,14.42.06,2.56-1.27,5.47.37,8-1l3,0c1.62-.56,3.62.79,5-1l2,0c1.16-1,2.94.44,4-1,.33,0,.66,0,1,0,1.16-1,2.95.45,4-1,8-2.22,15.82-4.76,22.18-10.47.43-.38,1.23-.36,1.86-.53-.41,5.26-1.49,10.48-1,15.8q-50.51.07-101,.17a6.7,6.7,0,0,1-3.78-1c-3.9-2.64-8.31-2.52-12.77-2.6-3.5-.06-7.26,1.12-10.43-1.46C534.68,279.21,537.43,275.56,535.48,271.46Z"/><path class="cls-18" d="M187.39,439.9c25.21,5.35,48.41-2.45,71.47-11a20.47,20.47,0,0,0,7.52-4.73c4.36,4.61,3.67,9.06-1.87,12.07-14.42,5-28.94,9.59-44,12.34a112.08,112.08,0,0,1-25.27,1.5,16.46,16.46,0,0,1-7.87-2.82C185.08,444.81,183.66,442.35,187.39,439.9Z"/><path class="cls-19" d="M621.34,434.72a31.84,31.84,0,0,1-1.14-13.51c.63-4.37,4.53-6.38,7-9.39,6-7.3,12.22-14.36,18.6-21.3,1.32-1.43,2.52-3.14,4.66-3.53,2.5,1.41,1.77,3.79,1.79,5.94-3.45,7-9.59,11.8-14.34,17.74-3.84,4.81-8,9.32-12.12,13.93-2.22,2.52-2,3.87.45,6,12.56,11.17,24.78,22.72,37,34.24,1.31,1.24,2.82,2.4,3.15,4.37,2.45,2.86,3,6.26,2.93,9.87Z"/><path class="cls-15" d="M478.45,158.1c-4.34,5.27-10.61,6.5-14.84,2.91-2.16-5.18-7.1-6.73-11.62-8.7-4.06-1.77-7.73-3.84-9.56-8.15,1.09-4.38,1.34-9,3-13.2,2.58-1.68,1.8-4.79,3-7.06.51-1,.56-2.6,2-2.54,1.67.08,1.85,1.74,1.92,3,.17,3,.3,6,.2,9-.22,6.48-.29,6.47,5.85,9,6.88,1.67,13,4.68,18,9.86Z"/><path class="cls-20" d="M510.5,481.12a105.08,105.08,0,0,1,6.83,12.94c-2.77,8.18-3.21,16.82-4.85,25.23-2.29,11.7-4.1,23.49-6.26,35.22-.31,1.72-.25,4.44-3.33,3.82s-1.91-2.8-1.69-4.76c2.55-22.72,5.82-45.34,9-68C510.42,484.12,510.41,482.61,510.5,481.12Z"/><path class="cls-21" d="M534.35,283.09c5.95.07,11.9.16,17.85.2,2.73,0,5,.62,5.35,3.86-1,1.3-2.43.84-3.69.84q-33.61,0-67.22,0c-1.47,0-3,.22-4.3-.8,0-1.35-1.23-2.49-.76-3.94Z"/><path class="cls-19" d="M294.32,351.2c-2.66,2-4.93,1.55-6.77-1.15-3.18-4.67-7-7.58-13.24-7.1-4.75.36-6.5-2.79-4.75-7.27a32.38,32.38,0,0,1,1.83-3.5,37.73,37.73,0,0,1,4.51-3c4.57-2.2,7.34-1.55,10.29,2.57C290.38,337.58,293.68,343.85,294.32,351.2Z"/><path class="cls-22" d="M542.56,572.93a11.83,11.83,0,0,1,1.88.62c1.6.84,4.67.77,3.62,3.59-.93,2.49-3.46,1.12-5.28.79s-3.67-1.28-5.18-.78c1.86,2.12,3.81,4.33,5.74,6.54.68.78,1.25,1.66.65,2.67a1.83,1.83,0,0,1-2.2.69c-1.86-.6-3.59-1.53-5.27.57-.49.62-1.45-.41-2.07-.91-3.6-2.89-7.34-5.62-10.12-9.39.55-1.39,1.92-1.64,3.06-2.21a17.36,17.36,0,0,0,2.29,1.45c-.24-.53-1.4-.72-1.43-1.75l7.19-6.66a4.92,4.92,0,0,1,1.56,1,4.25,4.25,0,0,0,2.39,1.76A4.77,4.77,0,0,1,542.56,572.93Z"/><path class="cls-16" d="M80.62,613.18c-1.38-.41-3,.42-4.23-.66,4.89-.79,9.76-1.62,14.63-2.35,1.91-.29,4,.24,3.93-3.06,0-1.57,2.19-1.07,3.39-1a158.74,158.74,0,0,1,34,5.8C115.09,612,97.88,613.45,80.62,613.18Z"/><path class="cls-15" d="M435.27,123.12c-.07-2.81-.2-5.61-.17-8.42,0-1.06-.31-2.59,1.24-2.83,1.05-.17,1.68.88,2.21,1.74a50.14,50.14,0,0,1,5.71,13.61c.18,5.63-.1,11.17-3,16.23-3.6-1.58-2.62-5.91-4.95-8.24C436.45,131.14,434.38,127.26,435.27,123.12Z"/><path class="cls-23" d="M538.48,572.05a2.79,2.79,0,0,1-2.13-2.8c.61-1,1.54-.86,2.47-.66a34.59,34.59,0,0,1,3.29,1.12c-.69-.52-1.5-.5-2.16-.85-1.24-.49-2.68-.58-3.58-1.76,1.13-2.41,1.6-5.14,3.44-7.22.44-1.6,1.84-1.7,3.13-2,1.85-.36,3.75-.57,5.39-1.65,1-.11,2.16-.56,2.62.59.37.94-.7,1.41-1.42,1.74-2.08,1-4.21,1.83-6.43,2.79a8.46,8.46,0,0,0,.75.68c1.9,1.32,6.35.29,5.77,3.09-.49,2.31-4.75.37-7.43,1.28,2.09,1.59,4.56,1.88,6.78,2.77,1.11.44,2.43,1,2.08,2.34-.4,1.61-1.85,1.6-3.27,1.29s-2.94-.51-4.4-.76C541.74,571.74,540.11,571.11,538.48,572.05Z"/><path class="cls-24" d="M476.41,152.16l-18-9.86c2.43-2.63-.68-4.8-.63-7.25,0-1.27-.87-2.76.6-3.58s2.86.34,3.39,1.36a46.79,46.79,0,0,0,13.32,15.7A4,4,0,0,1,476.41,152.16Z"/><path class="cls-25" d="M548.33,556.23c-.88,2.47-3.2,2.3-5.15,2.8-1.14-.76-2.71-.63-3.66-1.77v-3.32a7.77,7.77,0,0,1,3.49-1.49c-1.42-.61-3-.61-3.38-2.27-1.72-1.06-1.21-2.69-1.08-4.22.59-.43,1.41-.34,2-.89a3.48,3.48,0,0,1-2.06-1c-1.24-.73-1.1-1.91-1-3.08,2.58,1.69,4.69-.4,7-.83,1-.2,2.24-1.21,3.2,0s0,2.58-.73,3.56c-1.39,1.79-3,3.42-4.49,5.09,1.46.55,3,0,4.54-.42,1.08-.29,2.44-.8,3.14.45.82,1.47-.51,2.39-1.4,3.34-1.48,1.6-3.51,2.32-6.2,3.71Z"/><path class="cls-24" d="M435.27,123.12c.93,4,3.49,7.82,1.05,12.09a82.86,82.86,0,0,1-10-15.28c-.73-1.46-1.92-3.36-.31-4.48s3.12.59,4.23,1.75C432.06,119.07,433.62,121.14,435.27,123.12Z"/><path class="cls-24" d="M441.27,143.45a82.86,82.86,0,0,1,3-16.23,5.25,5.25,0,0,1,1.21,3.74c.22,4.69.15,9.3-3,13.2A1,1,0,0,1,441.27,143.45Z"/><path class="cls-16" d="M186.32,397.33V384.1c1.64,4.62.34,9.49,2.11,14-.88.42,0,2.5-1.9,2Z"/><path class="cls-26" d="M539.63,550.18c1.78,1.55,4.12.43,6.32,1.32a6.4,6.4,0,0,1-6.42,2.44Z"/><path class="cls-27" d="M493.4,273.25c1.2-4.12,4.77-6.38,7.33-9.45-1.33,3.74-4.3,6.33-6.42,9.51Z"/><path class="cls-16" d="M185.5,610.12c-1.76-1.87-3.12-4.12-5.6-5.49,1.89-1.07,3.06.69,4.51.46C185.6,606.59,187.29,608,185.5,610.12Z"/><path class="cls-16" d="M186.53,400.1l1.9-2c-.24,2.89.95,5.44,2,8a2.9,2.9,0,0,1-1,1c-1.68-.78-.22-3.4-2.3-3.95C186.13,402.31,186.44,401.18,186.53,400.1Z"/><path class="cls-28" d="M538.44,544.1l5.65-.69c-1.6,2-2.78,3.87-5.54,2.55C538.52,545.34,538.48,544.72,538.44,544.1Z"/><path class="cls-16" d="M260.3,598.05l-4.78-5.76c2.61.16,3.29,2.36,4.94,2.8C260.41,596.08,260.36,597.06,260.3,598.05Z"/><path class="cls-16" d="M238.4,612.14c0-2.11-1.44-3.61-2-5.58,2.15,1.07,3.05,2.94,3,5.44Z"/><path class="cls-29" d="M528.25,574.81c1.7,1.06,3.63,1.84,4.45,3.93-2-.88-4.16-1.52-5.31-3.63C527.68,575,528,574.92,528.25,574.81Z"/><path class="cls-16" d="M244.17,608c-1.56-.83-2-2.37-2.81-4.63l3,1.74Z"/><path class="cls-30" d="M539.52,557.26c1.4.22,2.83.36,3.66,1.77-1.16.15-2.43-.15-3.37.85Z"/><path class="cls-31" d="M536.37,567.1l3.93,1.09c.17.93,0,1.48-1.12,1.06h-2.83l-.91-1.1Z"/><path class="cls-16" d="M230.42,562.09a251.42,251.42,0,0,1,9-56c.91-.24,1.39-.05,1,1a12.3,12.3,0,0,1,0,1.49c-1.68,12.08-3.91,24-6.56,35.95-1.28,5.74-1.66,11.67-2.45,17.52A.59.59,0,0,1,230.42,562.09Z"/><path class="cls-16" d="M22.59,606.78a24.13,24.13,0,0,1,19.52,1C35.08,609,28.9,606.45,22.59,606.78Z"/><path class="cls-16" d="M240.45,507.12l-1-1q2.1-7,4.19-14.06A41.31,41.31,0,0,1,240.45,507.12Z"/><path class="cls-16" d="M47.85,597.4c4.3-.84,7.06,1.29,9.9,3.17C54.23,600.76,51.36,599,47.85,597.4Z"/><path class="cls-16" d="M230.42,562.09c.33,0,.66,0,1,0,0,1.8-1.38,3.21-1.36,5C229.36,565.36,228.89,563.64,230.42,562.09Z"/><path class="cls-32" d="M609.34,433.79c2.31,1.16.19,3.93,1.92,5.31-3.2,6.52-8.85,11.1-13.32,16.61-3.65,4.5-7.63,8.73-11.4,13.13-2.09,2.44-3.16,4.85-2.33,8.14.57,2.28.36,4.66-2,6.18-2.46,3.88-6.47,6-9.89,8.82-1.51,2.36-4.25,2.82-6.43,4.15a25,25,0,0,1-3.36,1.33c-1.44.41-2.88.88-4.18-.36-5.69-21.4-10.08-43.11-15-64.7-4.47-19.66-8.89-39.33-13.08-59-1.13-5.28-5.63-7-8.86-10.17-3.71-3.6-8.78-5.84-11.8-11.58,6.17,1.27,10.2,4.67,13.52,8.16,4.35,4.57,8.81,5.25,14.33,3.54a11.75,11.75,0,0,1,3-.13c.17,1-.3,2.2.93,2.85,4.75,5.93,6.85,13.21,10,20,3.33,7.25,6.39,14.62,9.32,22,1.68,4.28,2.24,4.33,5,.81,2.07-2.6,4-5.32,6.19-7.82,1.08-1.23,2.06-2.72,4.1-2.21,2.63,2.58,1.5,5.32.37,8.05-2.45,3.57-5.23,6.9-8,10.22a6.45,6.45,0,0,0-1.24,7.29c2.28,5.72,4.41,11.51,6.29,17.37,2.39,6.37,4.73,12.76,6.5,19.34.24.91.32,2,1.59,2.22,8.13-8.64,15.55-17.88,23.62-26.54C606.34,435.47,607.12,433.63,609.34,433.79Z"/><path class="cls-17" d="M587.28,305.12c.65-1,1.66-1,2.66-1l71.39.17a2,2,0,0,1-.05,2.92c-11.09,11.41-24.82,14.43-40.06,12.48C608.53,318.07,597.45,312.65,587.28,305.12Z"/><path class="cls-9" d="M661.28,307.22c0-1,0-2,.05-2.92l22.94-.11c-6.88,11-16.31,19.4-27.09,26.37-1.37.88-2.71,2.53-4.79,1.68C657.87,324.79,662.6,317.09,661.28,307.22Z"/><path class="cls-33" d="M550.28,522.35c6.29,4.28,12.18,8.87,14.28,17.8-3.07-2.15-4.65-4.39-6.5-6.42-6.69-7.3-13.91-13.84-24.75-13.74,2.85-1.59,6.22-.57,9.13-1.84C545.35,519,549,518.45,550.28,522.35Z"/><path class="cls-34" d="M558.38,497.1c1.51.24,2.84-.5,4.24-.83,1.49.75,2.84-.35,4.27-.33,2.13,0,4.21.15,5.43,2.3,6.85,2.61,13.79,5.1,17.34,12.48-9.78-4.81-18.59-12-30.31-11.6A2,2,0,0,1,558.38,497.1Z"/><path class="cls-35" d="M550.28,522.35l-7.84-4.2,9.92-3.37A10.44,10.44,0,0,1,550.28,522.35Z"/><path class="cls-17" d="M552.42,142.23c1.69-1.76.67-4,1-5.95,8.48-8.18,18.82-13.56,29-19.17a1.21,1.21,0,0,1,1.33,0c5.21,6.66,10.42,6.68,15.71.06,1-1.28,1.77-3,3.91-2.26,15,3.69,29.37,8.87,42,18.13a54.4,54.4,0,0,1,4.36,4c-5.31-1.08-8.37,1.76-10.77,6-4.76,8.42-6.19,17.77-7.5,27.11a378.8,378.8,0,0,0-3.22,52.59c0,4.41-.68,8.89-.89,13.36-.18,3.77.74,5.76,4.9,5.12a3.21,3.21,0,0,1,3.21.91c-2.54,1.91-5.42.91-8.16.86-1.63,0-3.25-.74-4.84.15-10-.71-19.8.77-29.47,2.51-12,2.17-24,4.44-36.27,3.54a26.65,26.65,0,0,0-10.31,1c-1.09-1.36-.66-2.86-.19-4.24,1.85-5.42,1.9-11,1.75-16.63a17.25,17.25,0,0,0-.72-6.88,297.72,297.72,0,0,1,0-33.4,20.12,20.12,0,0,0,.73-7.79,47.76,47.76,0,0,1,.41-8.62,14.42,14.42,0,0,0,.57-5.91A82.8,82.8,0,0,1,552.42,142.23Z"/><path class="cls-15" d="M581.21,107.27c-10.54-1.12-18.72-7.33-21-15.93a1.51,1.51,0,0,1,.33-1.79c5-6.49,4.81-7.58-2.12-11.36-.54-3.83,1.37-7.79-.92-11.6-.87-1.43.42-2.37,2.06-2.39,2.14,0,4.29-.06,6.44-.17.83,0,1.75-.4,1.58-1.41a2,2,0,0,0-1.4-1.18c-1.79-.17-3.8-.61-5.38,0-4.76,1.74-5-.62-4.37-4.22a6.68,6.68,0,0,1,3.74-3A43.51,43.51,0,0,0,575.6,43.6c.92-1,1.75-2.7,3.61-1.36a74.21,74.21,0,0,0,9.06,13.22c-3.21,2-7.24.75-10.09,4,3,1.35,5.66.56,8.31.15,3.12-.49,6.31-1.26,8.86,1.54a32.14,32.14,0,0,0,15,5.58,9.46,9.46,0,0,0,7-1.58c2.78-2.44,6.13-3.31,9-.94s2.57,5.91,1.36,9.2a13.38,13.38,0,0,1-10.35,9,6.87,6.87,0,0,0-5.63,4.6,34.1,34.1,0,0,1-10.14,13.25C596.85,106,587.21,109.36,581.21,107.27Z"/><path class="cls-24" d="M581.21,107.27c7.65.19,14-3.3,20.34-7l-.19,8.92c-2.88,5.32-7.81,7.74-13.31,9.35-1.88.55-3.57.43-4.87-1.26a1.36,1.36,0,0,1-.79-.16A9.07,9.07,0,0,0,581.21,107.27Z"/><path class="cls-15" d="M583.18,117.27c6.07,1.5,10.3-2.24,14.77-5.24a41.84,41.84,0,0,0,3.41-2.85c.31,2-.4,4.42,2,5.74-2.28,0-2.2,2.12-2.94,3.44-2.23,3.91-5.7,5.15-10,5.09S584.24,120.91,583.18,117.27Z"/><path class="cls-27" d="M579.21,42.24c-3.39,1.51-4.93,5-7.93,7.13-4.66,3.23-9.73,5.5-14.81,7.82.32-3.3,2-5.24,5.28-6.31,7-2.28,11.26-7.66,14-14.72C577.72,38.26,578.35,40.32,579.21,42.24Z"/><path class="cls-36" d="M516.11,202.06c6.51,9.76,11,20.24,12.49,31.87l-1.05.4c-3.12-8.1-6.29-16.19-9.31-24.33a36.84,36.84,0,0,0-3.82-8Z"/><path class="cls-37" d="M558.46,78.19c2.95-.24,5.63,0,6.59,3.51.87,3.19.18,5.81-2.56,7.8-.78.57-1.5,1.23-2.24,1.84C558.05,87.18,558.13,82.7,558.46,78.19Z"/><path class="cls-38" d="M617.34,65.18a4.85,4.85,0,0,1-5.15,3c-6.36-.55-12.13-2.52-16.84-7A40,40,0,0,0,617.34,65.18Z"/><path class="cls-39" d="M549.41,172.2c0,3,0,6-.08,9-1.26,2.22.25,4.8-.92,7v34.95c1.13,1.89-.29,4.16.92,6a47.37,47.37,0,0,1-3,21,5.3,5.3,0,0,0-1.91,3.89c-1.45,0-2.94.26-4.2-.75,3.44-4.1,2.89-9.36,4.14-14.1a7.8,7.8,0,0,0,0-6c-.75-7.93-1-15.87-1.08-23.85-.14-23.45,3.18-46.45,8.29-69.3,1.12.52.64,1.49.84,2.22-.68,8.31-2.44,16.53-2.09,24.93C549.18,168.69,550.47,170.66,549.41,172.2Z"/><path class="cls-40" d="M547.57,265.17l-.07-7c4,.51,8.07-1,11.9,1-1.48,1.33-3.52-.24-5,1l-2.39-.59c-1.7-.44-3.36-.84-3.59,1.76-.18,2.17.87,2.92,2.94,2.88,3.64-.07,7.28-.12,10.91.06,1.56.07,4.46-1,4.18,1.68-.23,2.07-3.08,1.33-4.75,1.08C557,266.29,552.37,265.07,547.57,265.17Z"/><path class="cls-41" d="M622.39,243.12c4.19-2.17,8.69-.33,13-1a32.67,32.67,0,0,1,13.9,2.67C639.51,246,631,244.09,622.39,243.12Z"/><path class="cls-42" d="M551.43,270.67c4.88-1.18,9.61.13,14.36,1.37C560.81,274.55,556.26,271.65,551.43,270.67Z"/><path class="cls-43" d="M550.41,253.47c5.05.07,10.22-1.25,15.08,1.11A29.37,29.37,0,0,1,550.41,253.47Z"/><path class="cls-44" d="M554.39,260.11c1.4-1.66,3.33-.67,5-1,2.38.16,4.82-.37,7.91.58C562.56,262.71,558.43,260,554.39,260.11Z"/><path class="cls-45" d="M628.34,285.16c-1,3.65-3.18,1.51-5,1C624.74,284.5,626.65,285.38,628.34,285.16Z"/><path class="cls-45" d="M620.33,286.17c-2.47,2-5.36.54-8,1C614.79,285.22,617.67,286.55,620.33,286.17Z"/><path class="cls-45" d="M634.34,284.16c-.82,2.46-2.61,1-4,1C631.38,283.69,633,284.29,634.34,284.16Z"/><path class="cls-45" d="M639.34,283.15c-.81,2.47-2.6,1-4,1C636.38,282.69,638,283.29,639.34,283.15Z"/><path class="cls-16" d="M207.44,417.15c3.59-.22,7.9-1.06,9.49-3.64,2.9-4.71,7.85-6.38,11.32-9.94s2.8-8,1.24-12.18c-1.87-5-5.57-8.93-9.26-13.41,9.66,5.82,15.91,20.15,10.41,25.57a163.15,163.15,0,0,1-15.06,12.83,10.38,10.38,0,0,1-7.13,1.77C207.39,418.54,207.22,418,207.44,417.15Z"/><path class="cls-16" d="M283.33,377.11c-7.3,4-14.58,1.57-21.6-.62-2.88-.9-4.41-4.16-5.53-7.29-1-2.78-1.33-6.84-6.42-5.59,4.67-2.25,5.45-2,7.29,3,1.33,3.61,2.38,7.34,6.64,8.63,4.76,1.44,9.56,2.6,14.58,1.4,1.74-.41,3.5-1.24,5.07.41Z"/><path class="cls-46" d="M241.13,353a2.9,2.9,0,0,1-3.3,2.68c-2.63-.1-5.63-3.41-5.54-6,.07-2.1,1.25-2.86,3.21-2.76C238.17,347.06,241.28,350.31,241.13,353Z"/><path class="cls-16" d="M207.44,417.15l1,1c-8,2.88-15.87-1.69-19-11l1-1C192.8,413.43,199,418.25,207.44,417.15Z"/><path class="cls-16" d="M225.17,351.64c-1.31-3.86-.09-6.07.82-8.29a1.42,1.42,0,0,1,2-.78,1.36,1.36,0,0,1,.63,2C227.67,346.6,226.68,348.59,225.17,351.64Z"/><path class="cls-47" d="M478.57,177.61c-3-4.29-2.79-8.53-4.51-13C477.64,168.78,479.19,173.1,478.57,177.61Z"/><path class="cls-48" d="M469.31,166.4c1.57,3.14,3.79,6.11,4.2,9.75.09.9.9,2.06-.61,2.34-1,.19-1.29-.84-1.45-1.63C470.71,173.38,470,169.88,469.31,166.4Z"/><path class="cls-47" d="M466.19,179.73a4.1,4.1,0,0,1-.77-1.09,90.6,90.6,0,0,1-2.6-11.4c1.87,3.93,4.09,7.74,4.5,12.16Z"/><path class="cls-48" d="M480.77,165.13c1.48,2.54,4,4.8,3.35,9C481.59,171.19,481.4,168.1,480.77,165.13Z"/><path class="cls-49" d="M594.69,545.18c1.33,3.6.29,6-1.31,8.47-4.14,6.31-9.39,11.69-14.5,17.13a55.2,55.2,0,0,0-10.18,15.87c-1.34,3-3.1,5.94-4.12,9.08-3.31,10.17-11.13,14.2-20.84,15.08-11,1-22,.94-32.71-2a34,34,0,0,1-9.11-4,4.73,4.73,0,0,1-2.51-4.53c.13-2.47.37-4,3.42-2.18,14.85,9,30.54,9,46.67,4.19,4.24-1.27,7.79-3.47,9.19-7.72,5.08-15.38,15.6-26.84,26.59-38.07C588.59,553.06,591.38,549.17,594.69,545.18Z"/><path class="cls-50" d="M575.41,583.23a52.93,52.93,0,0,0,18.72-9.06c4.77-3.5,5.62-9,6-14.25a60.67,60.67,0,0,1,9.28-27.55c4.44-7.22,7.75-15,11.29-23.13,3.06,2.84,2.15,5.88,1,8.69a101.17,101.17,0,0,1-6.26,13.57c-6.05,10.06-9,21-10.1,32.52-1,10.62-6.41,17.45-16.26,21.14-5.76,2.16-11.53,4.25-17.67,5.1C570,586.37,572.63,584.75,575.41,583.23Z"/><path class="cls-49" d="M523.42,601c-6.32-.44-12.56-1.2-18-4.93-5-3.42-4.79-6.66.43-9.75,7.61-4.52,13.45-4.16,20.63,1.07a45.62,45.62,0,0,1,8.34,7.78c1.5,1.8,1.27,3.35-1.19,4.11A34.21,34.21,0,0,1,523.42,601Z"/><path class="cls-51" d="M563.45,511.13c7.82,7.53,15.49,15.19,21.89,24-2.13-.34-4.64-2.68-6,1.79-.82-10.2-9.2-14.9-13.76-22.06C564.78,513.65,563.31,512.86,563.45,511.13Z"/><path class="cls-52" d="M538.48,572.05c1.63-1.54,3.26-1.32,4.9,0l-.82.89Z"/><path class="cls-53" d="M583.38,484.91c8.77,4.37,16.77,10,24.93,15.31-1.48,1.36-4.86.6-4.41,4.41-2.45-8-9.87-10.26-15.11-14.83C587,488.2,584.25,487.57,583.38,484.91Z"/><path class="cls-54" d="M572.32,498.24,566.43,497c-.59-.42-1.59-.61-.91-1.7a23.9,23.9,0,0,1,6.83-3.32C573.24,494.07,574.07,496.16,572.32,498.24Z"/><path class="cls-55" d="M575.26,398.87a13.34,13.34,0,0,0,2-6c.33-7.57.84-15.14,1.28-22.71.92-2.48,2.43-3.67,5.12-2.44,2.18,1,4.93-.69,6.87,1.46,1.58,1.82,1.36,4,1.1,6.1-.86,7-1.43,14-2.12,21.05-1,2.75-.33,5.6-.52,8.41-2,12.84-2.46,25.84-4.2,38.7-1,7.21-.14,14.72-3.39,21.57-1.2,1.38-1.7,0-1.85-.68-1.54-7.67-4.65-14.86-6.91-22.3-.14-9.12,1.36-18.16,1.32-27.27,0-2.7.95-5.2,1.39-7.81S578.1,401.54,575.26,398.87Z"/><path class="cls-56" d="M609.24,422.89l-20.89-19a6.27,6.27,0,0,1,0-6.81l19.06,17.31C609.05,417,609.06,420,609.24,422.89Z"/><path class="cls-57" d="M537.89,573.69c-1.75.76-2.87-.12-4.07-1.15C535.56,571.75,536.67,572.67,537.89,573.69Z"/><path class="cls-58" d="M540.78,575c.44-.71,1.05-.59,1.62-.26s1.36.29,1,1.13c-.11.24-.87.25-1.32.22C541.39,576,540.8,575.78,540.78,575Z"/><path class="cls-59" d="M527.49,579.27c.74-.56,1.08-.9,1.14-.86a4.43,4.43,0,0,1,1.41,1.26c.24.46,0,1-.76.67S528.14,579.66,527.49,579.27Z"/><path class="cls-60" d="M539.18,569.25l1.12-1.06,3.94,1.43C542,570.31,540.55,570.32,539.18,569.25Z"/><path class="cls-61" d="M565.52,495.3l.91,1.7c-1.35.15-2.76.63-3.81-.73Z"/><path class="cls-37" d="M590.35,83.79c0-5.93,5.81-9.58,10.52-7.19,1.5.76,2.59,1.81,1.87,4a77,77,0,0,1-4.15,9,2.27,2.27,0,0,1-2.83,1.44,8.68,8.68,0,0,1-5.22-5A5.32,5.32,0,0,1,590.35,83.79Z"/><path class="cls-62" d="M582.38,86l6.84-.41c-1.81,4.45-4.72,7.38-9.16,8.22-5.34,1-8.7-2.3-11.61-6.18C573,86.11,577.5,84.55,582.38,86Z"/><path class="cls-24" d="M578,80.18c-.88,1.44-2.25,2.23-3.7,1.74s-4-.23-3.83-2.91c.14-2.24,2-2,3.35-1.7C575.55,77.63,577.38,78.08,578,80.18Z"/><path class="cls-63" d="M582.38,86l-13.93,1.63c3.09-3.37,7.46-2.59,11.32-3.4,1.73-.36,3.61-.06,5.64-.06C584.82,85.77,582.91,84.79,582.38,86Z"/><path d="M564.34,74.24c-1.81-.26-3-1.12-2.75-2.9a2.86,2.86,0,0,1,2.91-2.78,2.67,2.67,0,0,1,2.82,3.22C567.1,73.56,565.88,74.2,564.34,74.24Z"/><path d="M586.22,71.22c-1.73-.17-2.91-1-2.73-2.85a2.82,2.82,0,0,1,3-2.79,2.86,2.86,0,0,1,2.75,3C589.19,70.41,588,71.17,586.22,71.22Z"/><path class="cls-64" d="M363.22,151.07c-10.25-7-20.44-14.2-30.75-21.14a8.13,8.13,0,0,1-2.13-1.92,107.42,107.42,0,0,0-15.26-77.74A103.83,103.83,0,0,0,271.43,10.9a102.45,102.45,0,0,0-66.8-8.77c-33.91,6.82-59,25.6-75,56a101,101,0,0,0-11.74,44.42c-.1,1.91-.16,3.83-.16,5.76a107.23,107.23,0,0,0,205.7,42.42,7.17,7.17,0,0,1,4.1-.6c12.69,1.24,25.4,2.36,38.23,3.55C365.28,152.16,364.17,151.72,363.22,151.07Z"/><path d="M143.85,48.83a.29.29,0,0,0,0,.22.31.31,0,0,0,.13.19.46.46,0,0,0,.3,0l1-.21.74,3.67a1.52,1.52,0,0,0,.83,1.11,2.49,2.49,0,0,0,1.63.14A5.29,5.29,0,0,0,150,53.4a2.84,2.84,0,0,0,.93-.68.31.31,0,0,0,0-.2.32.32,0,0,0-.12-.18.25.25,0,0,0-.2,0,.36.36,0,0,0-.2.13,4.42,4.42,0,0,1-.94.58,4.75,4.75,0,0,1-1.18.41,1.73,1.73,0,0,1-1.2-.09,1,1,0,0,1-.55-.72l-.74-3.68,3-.61a.43.43,0,0,0,.27-.13.25.25,0,0,0,0-.22.23.23,0,0,0-.12-.18.47.47,0,0,0-.3,0l-3,.62-.33-1.63a.41.41,0,0,0-.14-.27.24.24,0,0,0-.22,0,.23.23,0,0,0-.18.12.41.41,0,0,0,0,.3l.33,1.63-1,.21A.43.43,0,0,0,143.85,48.83Z"/><path d="M182.51,22.48a.28.28,0,0,0,.05-.22.27.27,0,0,0-.13-.18.41.41,0,0,0-.3,0l-1.52.31a.49.49,0,0,0-.27.13.25.25,0,0,0,0,.22.22.22,0,0,0,.12.18.41.41,0,0,0,.3,0l.33-.06L184.23,26l.59,2.92-1.43.29a.49.49,0,0,0-.28.13.28.28,0,0,0,0,.22.27.27,0,0,0,.13.18.41.41,0,0,0,.3,0l3.43-.7a.43.43,0,0,0,.27-.13.29.29,0,0,0,0-.22.26.26,0,0,0-.12-.18.41.41,0,0,0-.3,0l-1.44.29-.59-2.92,1.64-4.15.33-.07a.43.43,0,0,0,.27-.13.27.27,0,0,0,.05-.22.27.27,0,0,0-.13-.18.41.41,0,0,0-.3,0l-1.51.31a.49.49,0,0,0-.28.13.25.25,0,0,0,0,.22.2.2,0,0,0,.12.18.44.44,0,0,0,.31,0l.54-.11-1.39,3.52-2.7-2.69.54-.11A.43.43,0,0,0,182.51,22.48Z"/><path d="M139.8,71.83a.28.28,0,0,0,.09.4.4.4,0,0,0,.3,0l1.8-.37a.43.43,0,0,0,.27-.14.28.28,0,0,0-.08-.39.41.41,0,0,0-.3,0l-.63.13-.71-3.5a7.27,7.27,0,0,1,.82-1.2,1.85,1.85,0,0,1,1-.51,1.74,1.74,0,0,1,1.28.16,1.33,1.33,0,0,1,.63.91l.69,3.39-.62.12a.41.41,0,0,0-.27.14.26.26,0,0,0-.05.21.27.27,0,0,0,.13.18.44.44,0,0,0,.31,0l1.79-.36a.49.49,0,0,0,.28-.14.3.3,0,0,0,0-.21.27.27,0,0,0-.13-.19.41.41,0,0,0-.3,0l-.62.12-.69-3.42a1.79,1.79,0,0,0-.51-.93,1.93,1.93,0,0,0-.89-.54,2.61,2.61,0,0,0-1.15,0,2.49,2.49,0,0,0-1,.46,3.28,3.28,0,0,0-.85,1l-.69-3.4-1.3.26a.49.49,0,0,0-.27.14.23.23,0,0,0,0,.21.26.26,0,0,0,.12.19.41.41,0,0,0,.3,0l.75-.15,1.45,7.14-.63.13A.43.43,0,0,0,139.8,71.83Z"/><path d="M184,163.54a.23.23,0,0,0,.12.17.26.26,0,0,0,.21,0,.5.5,0,0,0,.2-.13l5.31-4.54L183.17,157a.53.53,0,0,0-.23,0,.25.25,0,0,0-.18.12.25.25,0,0,0,0,.21c0,.11.12.19.28.24l5.7,1.8-4.55,3.88C184,163.32,184,163.43,184,163.54Z"/><path d="M210.41,66.77l-3.22.66a.43.43,0,0,0-.27.13.28.28,0,0,0,0,.22A.27.27,0,0,0,207,68a.38.38,0,0,0,.29,0l.75-.15,1.34,6.58-.75.15a.42.42,0,0,0-.26.14.24.24,0,0,0,0,.22.29.29,0,0,0,.13.18.47.47,0,0,0,.3,0l3.19-.65a.49.49,0,0,0,.27-.14.23.23,0,0,0,0-.21.23.23,0,0,0-.12-.19.42.42,0,0,0-.3,0l-1.9.38-.53-2.6,1.74-.36a3.19,3.19,0,0,0,.92-.31,3.75,3.75,0,0,0,.91-.75,2.1,2.1,0,0,0,.43-.78,2,2,0,0,0,0-1,2.17,2.17,0,0,0-1-1.43A2.76,2.76,0,0,0,210.41,66.77Zm2.48,1.83a1.48,1.48,0,0,1-.08.85,1.92,1.92,0,0,1-.65.83,2.73,2.73,0,0,1-1.09.51l-1.77.36-.7-3.43,2-.41a2.07,2.07,0,0,1,1.52.24A1.58,1.58,0,0,1,212.89,68.6Z"/><path d="M152.57,136.52a.24.24,0,0,0,0,.22.23.23,0,0,0,.12.18.41.41,0,0,0,.3,0l1.3-.26-.22-1.09a3,3,0,0,0,2.68.81,2.81,2.81,0,0,0,1.88-1.31,3.21,3.21,0,0,0-.87-4.34,2.86,2.86,0,0,0-2.25-.46,3,3,0,0,0-2.15,1.8l-.75-3.66-1.3.26a.38.38,0,0,0-.26.14.23.23,0,0,0,0,.21.29.29,0,0,0,.13.19.41.41,0,0,0,.3,0l.74-.15,1.45,7.14-.74.15A.43.43,0,0,0,152.57,136.52Zm1.47-4.6a2.38,2.38,0,0,1,1.53-1.07,2.34,2.34,0,0,1,1.83.39,2.59,2.59,0,0,1,.72,3.54,2.34,2.34,0,0,1-1.53,1.07,2.37,2.37,0,0,1-1.83-.38,2.6,2.6,0,0,1-.72-3.55Z"/><path d="M205.15,86.54a3.16,3.16,0,0,0-2,1.31,2.8,2.8,0,0,0-.47,2.25,3.13,3.13,0,0,0,1.41,2.06,3.29,3.29,0,0,0,2.56.44,4.89,4.89,0,0,0,1.6-.62,3.09,3.09,0,0,0,1-.84.33.33,0,0,0,.06-.24.23.23,0,0,0-.12-.18.29.29,0,0,0-.2,0,.42.42,0,0,0-.2.15,3.49,3.49,0,0,1-1,.76,4.53,4.53,0,0,1-1.26.47,2.83,2.83,0,0,1-2-.27,2.74,2.74,0,0,1-1.25-1.55l5.64-1.14A3.15,3.15,0,0,0,207.56,87,3.09,3.09,0,0,0,205.15,86.54Zm3.06,2.1-5.07,1a2.49,2.49,0,0,1,.57-1.67,2.6,2.6,0,0,1,1.55-.9,2.67,2.67,0,0,1,1.79.23A2.45,2.45,0,0,1,208.21,88.64Z"/><path d="M174.67,183.21a2.83,2.83,0,0,0,1.88-1.31,3.05,3.05,0,0,0,.43-2.36,3,3,0,0,0-1.3-2,2.82,2.82,0,0,0-2.25-.45,3,3,0,0,0-2.15,1.79l-.75-3.66-1.3.26a.38.38,0,0,0-.26.14.23.23,0,0,0-.05.21.27.27,0,0,0,.13.19.4.4,0,0,0,.3,0l.74-.15,1.45,7.14-.74.15a.49.49,0,0,0-.27.13.24.24,0,0,0,0,.22.23.23,0,0,0,.12.18.41.41,0,0,0,.3,0l1.3-.26L172,182.4A2.94,2.94,0,0,0,174.67,183.21Zm-3-2.56a2.5,2.5,0,0,1,.36-1.92,2.37,2.37,0,0,1,3.36-.68,2.54,2.54,0,0,1,1.08,1.63,2.47,2.47,0,0,1-.36,1.91,2.36,2.36,0,0,1-3.36.69A2.47,2.47,0,0,1,171.64,180.65Z"/><path d="M180,75.55a.26.26,0,0,0,0-.21.27.27,0,0,0-.13-.19.38.38,0,0,0-.29,0l-3,.61-.33-1.63a.43.43,0,0,0-.14-.27.28.28,0,0,0-.22,0,.26.26,0,0,0-.18.12.41.41,0,0,0,0,.3l.33,1.63-1,.21a.43.43,0,0,0-.27.14.3.3,0,0,0,.08.4.41.41,0,0,0,.3,0l1-.21.75,3.68a1.51,1.51,0,0,0,.82,1.1,2.46,2.46,0,0,0,1.64.14,5.24,5.24,0,0,0,1.5-.57,2.7,2.7,0,0,0,.93-.68.22.22,0,0,0,.05-.2.27.27,0,0,0-.12-.18.24.24,0,0,0-.2,0,.44.44,0,0,0-.2.13,4,4,0,0,1-.94.58,5.19,5.19,0,0,1-1.17.42,1.79,1.79,0,0,1-1.2-.09,1.07,1.07,0,0,1-.55-.73l-.75-3.67,3-.61A.49.49,0,0,0,180,75.55Z"/><path d="M211.33,90.68a.23.23,0,0,0,.12.18.27.27,0,0,0,.21,0,.49.49,0,0,0,.2-.12l5.31-4.54-6.66-2.11a.44.44,0,0,0-.23,0,.36.36,0,0,0-.18.12.34.34,0,0,0,0,.22c0,.11.12.19.28.24l5.7,1.8-4.55,3.88C211.36,90.46,211.3,90.57,211.33,90.68Z"/><path d="M209.69,136.77a.43.43,0,0,0,.13.28.24.24,0,0,0,.22,0,.26.26,0,0,0,.18-.12.44.44,0,0,0,0-.31l-.5-2.46-6.2,1.26.5,2.46a.43.43,0,0,0,.14.28.25.25,0,0,0,.21,0,.29.29,0,0,0,.19-.12.51.51,0,0,0,0-.31l-.39-1.91,2.27-.46,1.34,6.58-1.44.3a.38.38,0,0,0-.26.13.24.24,0,0,0-.05.22.27.27,0,0,0,.13.18.46.46,0,0,0,.3,0l3.43-.7a.43.43,0,0,0,.27-.14.25.25,0,0,0,0-.21.22.22,0,0,0-.12-.18.41.41,0,0,0-.3,0l-1.44.29L207,135.32l2.27-.46Z"/><path d="M167.48,24.86a3.23,3.23,0,0,0-1.56.79A3.35,3.35,0,0,0,165,27.2a3.68,3.68,0,0,0-.1,1.76l.23,1.12a3.27,3.27,0,0,0,.38,1,3.69,3.69,0,0,0,.82.91,4.88,4.88,0,0,0,.93.64,3.09,3.09,0,0,0,.87.26,3.54,3.54,0,0,0,1.26,0,3.41,3.41,0,0,0,1.31-.58,4,4,0,0,0,1-1.16,1,1,0,0,0,.19-.52.34.34,0,0,0-.11-.17.25.25,0,0,0-.21,0,.34.34,0,0,0-.22.19,4.19,4.19,0,0,1-.9,1.15,2.72,2.72,0,0,1-1.21.57,2.89,2.89,0,0,1-2.27-.49,3,3,0,0,1-1.33-2l-.2-1a2.78,2.78,0,0,1,0-1.07,4.45,4.45,0,0,1,.46-1.28,2.25,2.25,0,0,1,.57-.64,2.73,2.73,0,0,1,1.15-.52,2.78,2.78,0,0,1,1.86.23,1.33,1.33,0,0,1,.8.85.39.39,0,0,0,.14.24.24.24,0,0,0,.2,0,.26.26,0,0,0,.19-.12.45.45,0,0,0,0-.31l-.31-1.53a.43.43,0,0,0-.13-.27.28.28,0,0,0-.22,0,.26.26,0,0,0-.18.12.41.41,0,0,0,0,.3l.08.39A3.37,3.37,0,0,0,167.48,24.86Z"/><path d="M218.45,22.18a.28.28,0,0,0,0,.22.29.29,0,0,0,.12.18.44.44,0,0,0,.31,0l1.8-.37a.38.38,0,0,0,.27-.13.29.29,0,0,0,0-.22.29.29,0,0,0-.12-.18.41.41,0,0,0-.3,0l-.62.13-.7-3.43a1.86,1.86,0,0,0-.5-.92,2,2,0,0,0-.9-.55,2.43,2.43,0,0,0-1.14,0,2.52,2.52,0,0,0-1,.45,3.72,3.72,0,0,0-.85,1l-.69-3.4-1.3.27a.38.38,0,0,0-.26.14.26.26,0,0,0-.05.21.29.29,0,0,0,.13.19.48.48,0,0,0,.3,0l.74-.15,1.45,7.13-.62.13a.43.43,0,0,0-.27.14.22.22,0,0,0,0,.21.23.23,0,0,0,.12.18.41.41,0,0,0,.3,0l1.81-.36a.42.42,0,0,0,.26-.14.28.28,0,0,0-.08-.4.47.47,0,0,0-.3,0l-.62.13L215,19.18a8.21,8.21,0,0,1,.81-1.21,1.88,1.88,0,0,1,1-.5,1.69,1.69,0,0,1,1.28.16,1.29,1.29,0,0,1,.64.91l.69,3.38-.62.13A.43.43,0,0,0,218.45,22.18Z"/><path d="M201.71,136.33a.29.29,0,0,0,0-.22.27.27,0,0,0-.13-.18.44.44,0,0,0-.31,0l-1.64.33a.49.49,0,0,0-.27.14.25.25,0,0,0,0,.21.27.27,0,0,0,.13.19.46.46,0,0,0,.3,0l.73-.15.59,2.86-3.67.75-.59-2.87.75-.15a.49.49,0,0,0,.27-.13.28.28,0,0,0,0-.22.27.27,0,0,0-.13-.18.38.38,0,0,0-.29,0l-1.65.33a.43.43,0,0,0-.27.14.24.24,0,0,0,0,.22.23.23,0,0,0,.12.18.45.45,0,0,0,.31,0l.34-.06,1.34,6.58-.63.13a.42.42,0,0,0-.26.13.25.25,0,0,0,0,.22.27.27,0,0,0,.13.18.4.4,0,0,0,.3,0l1.92-.39a.43.43,0,0,0,.27-.14.3.3,0,0,0-.08-.4.49.49,0,0,0-.3,0l-.75.15-.64-3.17,3.67-.75.64,3.17-.73.15a.49.49,0,0,0-.28.13.34.34,0,0,0,0,.22.27.27,0,0,0,.13.18.41.41,0,0,0,.3,0l1.92-.39a.49.49,0,0,0,.27-.13.25.25,0,0,0,0-.22.23.23,0,0,0-.12-.18.41.41,0,0,0-.3,0l-.63.13-1.34-6.59.35-.07A.49.49,0,0,0,201.71,136.33Z"/><path d="M147.65,120.75a.26.26,0,0,0,.18-.12.23.23,0,0,0,0-.21c0-.11-.11-.19-.28-.24l-5.7-1.8,4.55-3.89a.36.36,0,0,0,.17-.33.36.36,0,0,0-.12-.18.34.34,0,0,0-.22,0,.67.67,0,0,0-.2.12l-5.3,4.55,6.65,2.11A.56.56,0,0,0,147.65,120.75Z"/><path d="M196.18,72.47a3.33,3.33,0,0,0-4.45.88,2.82,2.82,0,0,0-.48,2.24,3.1,3.1,0,0,0,1.41,2.06,3.36,3.36,0,0,0,2.57.45,5.24,5.24,0,0,0,1.6-.63,2.92,2.92,0,0,0,1-.84.32.32,0,0,0,.07-.24.36.36,0,0,0-.12-.18.25.25,0,0,0-.2,0,.35.35,0,0,0-.2.14,3.43,3.43,0,0,1-1,.77,4.64,4.64,0,0,1-1.25.46,2.86,2.86,0,0,1-2-.27,2.76,2.76,0,0,1-1.25-1.54l5.64-1.15A3.12,3.12,0,0,0,196.18,72.47Zm-4.42,2.7a2.47,2.47,0,0,1,.56-1.67,2.7,2.7,0,0,1,1.55-.91,2.6,2.6,0,0,1,1.79.24,2.39,2.39,0,0,1,1.17,1.31Z"/><path d="M148.89,69.74a3.29,3.29,0,0,0,2.56.44,4.89,4.89,0,0,0,1.6-.62,3.09,3.09,0,0,0,1-.84.33.33,0,0,0,.06-.24.29.29,0,0,0-.12-.18.24.24,0,0,0-.2,0,.33.33,0,0,0-.2.14,3.49,3.49,0,0,1-1,.76,4.53,4.53,0,0,1-1.26.47,2.83,2.83,0,0,1-2-.27,2.74,2.74,0,0,1-1.25-1.55l5.64-1.14a3.15,3.15,0,0,0-1.33-2.12,3.09,3.09,0,0,0-2.41-.43,3.16,3.16,0,0,0-2,1.31,2.8,2.8,0,0,0-.47,2.25A3.13,3.13,0,0,0,148.89,69.74Zm-.34-4.16a2.6,2.6,0,0,1,1.55-.9,2.67,2.67,0,0,1,1.79.23,2.45,2.45,0,0,1,1.16,1.31l-5.07,1A2.49,2.49,0,0,1,148.55,65.58Z"/><path d="M203.82,150.73a.26.26,0,0,0-.15.07.55.55,0,0,0-.1.23l-2.51,10.42a.49.49,0,0,0,0,.23.25.25,0,0,0,.12.17.3.3,0,0,0,.21,0,.35.35,0,0,0,.24-.3l2.52-10.43a.68.68,0,0,0,0-.23.31.31,0,0,0-.12-.16A.23.23,0,0,0,203.82,150.73Z"/><path d="M231.61,14.45a.75.75,0,0,1,.64.17,1,1,0,0,1,.41.67l.88,4.32,1-.21a.43.43,0,0,0,.27-.14.22.22,0,0,0,0-.21.22.22,0,0,0-.12-.18.41.41,0,0,0-.3,0l-.46.09-.75-3.66a3.23,3.23,0,0,1,.59-1,1.19,1.19,0,0,1,.59-.35.79.79,0,0,1,.65.15,1,1,0,0,1,.4.65l.88,4.36,1-.21a.38.38,0,0,0,.26-.14.26.26,0,0,0,.05-.21.27.27,0,0,0-.13-.19.49.49,0,0,0-.3,0l-.46.09L236,14.51a1.6,1.6,0,0,0-.69-1,1.26,1.26,0,0,0-1-.2,1.51,1.51,0,0,0-.72.39,3.13,3.13,0,0,0-.61.83,1.64,1.64,0,0,0-.68-.57,1.32,1.32,0,0,0-.79-.08,2.05,2.05,0,0,0-1.27,1l-.11-.56-1,.21a.43.43,0,0,0-.27.13.29.29,0,0,0,0,.22.3.3,0,0,0,.13.18.41.41,0,0,0,.3,0l.47-.1.93,4.58-.47.1a.38.38,0,0,0-.26.13.24.24,0,0,0-.05.22.27.27,0,0,0,.13.18.46.46,0,0,0,.3,0l1.49-.3a.42.42,0,0,0,.26-.14.29.29,0,0,0,.05-.22.27.27,0,0,0-.13-.18.47.47,0,0,0-.3,0l-.46.1-.75-3.66a3.49,3.49,0,0,1,.65-1.1A1.1,1.1,0,0,1,231.61,14.45Z"/><path d="M286.12,58.91a2.14,2.14,0,0,0,.43-1.77,2.06,2.06,0,0,0-.51-1,2,2,0,0,0-1-.54,7.55,7.55,0,0,0-1.64-.05,7.74,7.74,0,0,1-1,0,2.09,2.09,0,0,1-.62-.15,1.33,1.33,0,0,1-.49-.36,1.13,1.13,0,0,1-.27-.56,1.47,1.47,0,0,1,.31-1.22,2.51,2.51,0,0,1,2.86-.61,1.41,1.41,0,0,1,.77.87.39.39,0,0,0,.13.24.29.29,0,0,0,.22,0,.26.26,0,0,0,.18-.12.48.48,0,0,0,0-.3l-.29-1.41a.49.49,0,0,0-.13-.27.28.28,0,0,0-.22,0,.25.25,0,0,0-.18.13.38.38,0,0,0,0,.29l0,.19a3,3,0,0,0-2.15-.33,2.73,2.73,0,0,0-1.71,1,2,2,0,0,0-.39,1.64,1.63,1.63,0,0,0,.88,1.22,4.71,4.71,0,0,0,2.13.3,7.17,7.17,0,0,1,1.38,0,1.53,1.53,0,0,1,.79.4,1.34,1.34,0,0,1,.39.72,1.59,1.59,0,0,1-.35,1.35,2.49,2.49,0,0,1-1.54.86,2.62,2.62,0,0,1-1.76-.16,1.54,1.54,0,0,1-.87-1,.39.39,0,0,0-.14-.24.25.25,0,0,0-.21,0,.27.27,0,0,0-.18.13.47.47,0,0,0,0,.3l.31,1.53a.38.38,0,0,0,.14.26.28.28,0,0,0,.22,0,.27.27,0,0,0,.18-.13.47.47,0,0,0,0-.3l-.07-.31a3.15,3.15,0,0,0,2.49.43A3.11,3.11,0,0,0,286.12,58.91Z"/><path d="M289.26,126.25a3,3,0,0,0,1.91-1.08,2.14,2.14,0,0,0,.43-1.77,2.06,2.06,0,0,0-.51-1,2.1,2.1,0,0,0-1-.54,8.28,8.28,0,0,0-1.64,0,7.74,7.74,0,0,1-1,0,2.09,2.09,0,0,1-.62-.15,1.33,1.33,0,0,1-.49-.36,1.13,1.13,0,0,1-.27-.56,1.47,1.47,0,0,1,.31-1.22,2.51,2.51,0,0,1,2.86-.61,1.41,1.41,0,0,1,.77.87.39.39,0,0,0,.13.24.25.25,0,0,0,.22,0,.26.26,0,0,0,.18-.12.48.48,0,0,0,0-.3l-.29-1.41a.49.49,0,0,0-.13-.27.28.28,0,0,0-.22,0,.27.27,0,0,0-.18.13.38.38,0,0,0,0,.29l0,.19a3,3,0,0,0-2.15-.32,2.68,2.68,0,0,0-1.71,1,2,2,0,0,0-.39,1.64,1.63,1.63,0,0,0,.88,1.22,4.71,4.71,0,0,0,2.13.3,7.17,7.17,0,0,1,1.38,0,1.53,1.53,0,0,1,.79.4,1.34,1.34,0,0,1,.39.72,1.58,1.58,0,0,1-.35,1.35,2.49,2.49,0,0,1-1.54.86,2.62,2.62,0,0,1-1.76-.16,1.54,1.54,0,0,1-.87-1,.35.35,0,0,0-.14-.24.3.3,0,0,0-.21,0,.27.27,0,0,0-.18.13.47.47,0,0,0,0,.3l.31,1.53a.42.42,0,0,0,.14.26.28.28,0,0,0,.22,0,.27.27,0,0,0,.18-.13.44.44,0,0,0,0-.29l-.07-.32A3.11,3.11,0,0,0,289.26,126.25Z"/><path d="M281.16,127.9a3,3,0,0,0,1.91-1.09,2.07,2.07,0,0,0,.43-1.76,1.91,1.91,0,0,0-.51-1,2,2,0,0,0-1-.54,7.28,7.28,0,0,0-1.63-.06,6.7,6.7,0,0,1-1,0,2.45,2.45,0,0,1-.62-.15,1.33,1.33,0,0,1-.49-.36,1.16,1.16,0,0,1-.27-.57,1.45,1.45,0,0,1,.31-1.21,2.54,2.54,0,0,1,2.86-.62,1.42,1.42,0,0,1,.77.88.39.39,0,0,0,.14.24.25.25,0,0,0,.21,0,.27.27,0,0,0,.18-.13.38.38,0,0,0,0-.29l-.29-1.41a.43.43,0,0,0-.13-.27.28.28,0,0,0-.22,0,.26.26,0,0,0-.18.12.41.41,0,0,0,0,.3l0,.19a3,3,0,0,0-2.15-.33,2.73,2.73,0,0,0-1.71,1,2,2,0,0,0-.39,1.63,1.65,1.65,0,0,0,.88,1.23,4.71,4.71,0,0,0,2.13.3,7.17,7.17,0,0,1,1.38,0,1.59,1.59,0,0,1,.79.39,1.41,1.41,0,0,1,.39.73,1.6,1.6,0,0,1-.35,1.35,2.45,2.45,0,0,1-1.54.85,2.62,2.62,0,0,1-1.76-.15,1.54,1.54,0,0,1-.87-1,.39.39,0,0,0-.13-.24.27.27,0,0,0-.21,0,.29.29,0,0,0-.19.12.5.5,0,0,0,0,.31l.31,1.52a.42.42,0,0,0,.14.27.29.29,0,0,0,.22.05.27.27,0,0,0,.18-.13.48.48,0,0,0,0-.3l-.07-.31A3.15,3.15,0,0,0,281.16,127.9Z"/><path d="M295,57.49a.26.26,0,0,0,0-.21.26.26,0,0,0-.12-.19.45.45,0,0,0-.31,0l-2.17.44-1.05-5.14-2.17.44a.43.43,0,0,0-.27.14.28.28,0,0,0-.05.22.27.27,0,0,0,.13.18.44.44,0,0,0,.31,0l1.61-.33.93,4.58-2.17.44a.43.43,0,0,0-.27.14.24.24,0,0,0,0,.22.23.23,0,0,0,.12.17.41.41,0,0,0,.3,0l4.9-1A.49.49,0,0,0,295,57.49Z"/><path d="M270.28,62l-2.17.45-1.57-7.7-2.14.44a.43.43,0,0,0-.28.13.29.29,0,0,0,0,.22.24.24,0,0,0,.13.18.41.41,0,0,0,.3,0l1.59-.32,1.46,7.14-2.18.44a.49.49,0,0,0-.27.13.29.29,0,0,0,0,.22.29.29,0,0,0,.12.18.41.41,0,0,0,.3,0l4.91-1a.43.43,0,0,0,.27-.13.29.29,0,0,0,.05-.22.27.27,0,0,0-.13-.18A.44.44,0,0,0,270.28,62Z"/><rect x="290.09" y="49.62" width="0.83" height="1.46" transform="translate(-4.21 58.83) rotate(-11.48)"/><path d="M269,123.8a3.64,3.64,0,0,0-.1,1.75l.23,1.13a3.11,3.11,0,0,0,.37,1,3.59,3.59,0,0,0,.83.91,5.39,5.39,0,0,0,.92.65,3.2,3.2,0,0,0,.87.25,3.59,3.59,0,0,0,1.27,0,3.22,3.22,0,0,0,1.3-.58,3.62,3.62,0,0,0,1-1.16.86.86,0,0,0,.19-.52.25.25,0,0,0-.11-.17.3.3,0,0,0-.42.16,4.24,4.24,0,0,1-.9,1.16,2.64,2.64,0,0,1-1.22.56,2.9,2.9,0,0,1-2.26-.48,3.05,3.05,0,0,1-1.34-2l-.19-1a2.83,2.83,0,0,1,0-1.08,4.45,4.45,0,0,1,.46-1.28,2.09,2.09,0,0,1,.57-.63,2.69,2.69,0,0,1,1.15-.53,2.84,2.84,0,0,1,1.86.23,1.37,1.37,0,0,1,.8.86.43.43,0,0,0,.14.24.28.28,0,0,0,.2,0,.25.25,0,0,0,.18-.13.41.41,0,0,0,0-.3l-.31-1.54a.42.42,0,0,0-.13-.26.29.29,0,0,0-.22,0,.23.23,0,0,0-.18.13.41.41,0,0,0,0,.3l.07.39a3.38,3.38,0,0,0-2.54-.46,3.22,3.22,0,0,0-1.56.79A3.18,3.18,0,0,0,269,123.8Z"/><path d="M313.7,115.15a2.43,2.43,0,0,0-1.14,0,2.52,2.52,0,0,0-1,.45,3.79,3.79,0,0,0-.85,1l-.69-3.4-1.3.26a.38.38,0,0,0-.26.14.23.23,0,0,0-.05.21.27.27,0,0,0,.13.19.41.41,0,0,0,.3,0l.74-.15L311,121l-.62.12a.49.49,0,0,0-.27.14.27.27,0,0,0-.05.22.32.32,0,0,0,.13.18.48.48,0,0,0,.3,0l1.81-.37a.38.38,0,0,0,.26-.14.26.26,0,0,0,.05-.21.27.27,0,0,0-.13-.19.49.49,0,0,0-.3,0l-.62.12-.71-3.49a6.68,6.68,0,0,1,.82-1.2,1.72,1.72,0,0,1,1-.51,1.74,1.74,0,0,1,1.28.16,1.31,1.31,0,0,1,.64.91l.69,3.38-.62.13a.49.49,0,0,0-.28.13.29.29,0,0,0,0,.22.26.26,0,0,0,.12.18.44.44,0,0,0,.31,0l1.8-.36a.42.42,0,0,0,.27-.14.29.29,0,0,0,0-.22.26.26,0,0,0-.12-.18.48.48,0,0,0-.3,0l-.62.13-.7-3.42a1.85,1.85,0,0,0-.5-.93A2,2,0,0,0,313.7,115.15Z"/><path d="M163,194.93a.23.23,0,0,0-.12-.18.23.23,0,0,0-.21,0,.49.49,0,0,0-.2.12l-.42.36.47.34.32-.27A.35.35,0,0,0,163,194.93Z"/><path d="M252.78,65.66a.28.28,0,0,0-.05.22.27.27,0,0,0,.13.18.44.44,0,0,0,.31,0l1.48-.3a.43.43,0,0,0,.27-.14.25.25,0,0,0,0-.21.29.29,0,0,0-.12-.19.49.49,0,0,0-.3,0l-.47.09-.71-3.48a1.71,1.71,0,0,0-.49-.87,2,2,0,0,0-.8-.52,2.47,2.47,0,0,0-1.21,0,2.5,2.5,0,0,0-1,.43,4.35,4.35,0,0,0-.88,1L248.8,61l-1,.21a.43.43,0,0,0-.27.14.22.22,0,0,0,0,.21.25.25,0,0,0,.12.19.41.41,0,0,0,.3,0l.47-.1.93,4.58-.62.13a.42.42,0,0,0-.27.13.29.29,0,0,0-.05.22.27.27,0,0,0,.13.18.41.41,0,0,0,.3,0l1.8-.36a.45.45,0,0,0,.27-.14.28.28,0,0,0-.08-.4.48.48,0,0,0-.3,0l-.63.13-.7-3.46a5.35,5.35,0,0,1,.92-1.33A2,2,0,0,1,251,61a1.63,1.63,0,0,1,1.23.17,1.33,1.33,0,0,1,.63.9l.68,3.38-.46.1A.49.49,0,0,0,252.78,65.66Z"/><path d="M332,113.19l-6.39-2a.49.49,0,0,0-.24,0,.3.3,0,0,0-.17.12.28.28,0,0,0-.05.21c0,.11.12.19.29.25l5.69,1.8-4.54,3.88a.34.34,0,0,0-.17.33.26.26,0,0,0,.12.18.27.27,0,0,0,.21,0,.49.49,0,0,0,.2-.12l5-4.31C332,113.41,332,113.3,332,113.19Z"/><path d="M308.6,55a5.24,5.24,0,0,0,1.6-.63,2.92,2.92,0,0,0,1-.84.32.32,0,0,0,.07-.24.36.36,0,0,0-.12-.18.29.29,0,0,0-.2,0,.39.39,0,0,0-.2.14,3.43,3.43,0,0,1-1,.77,4.33,4.33,0,0,1-1.25.46,2.8,2.8,0,0,1-2-.27,2.76,2.76,0,0,1-1.25-1.54l5.64-1.15a3.09,3.09,0,0,0-1.33-2.11,3,3,0,0,0-2.41-.43,3.07,3.07,0,0,0-2,1.31,2.82,2.82,0,0,0-.48,2.24A3.1,3.1,0,0,0,306,54.58,3.36,3.36,0,0,0,308.6,55Zm-2.91-4.6a2.69,2.69,0,0,1,1.56-.91,2.58,2.58,0,0,1,1.78.24,2.39,2.39,0,0,1,1.17,1.31l-5.07,1A2.47,2.47,0,0,1,305.69,50.43Z"/><path d="M305.8,113.15a.28.28,0,0,0-.15.08.65.65,0,0,0-.1.22L303,123.88a.66.66,0,0,0,0,.23.31.31,0,0,0,.12.16.27.27,0,0,0,.21,0q.18,0,.24-.3l2.52-10.42a.5.5,0,0,0,0-.23.25.25,0,0,0-.12-.17A.3.3,0,0,0,305.8,113.15Z"/><path d="M178.44,198.54a.29.29,0,0,0,0,.22.26.26,0,0,0,.12.18.44.44,0,0,0,.31,0l1.8-.36a.49.49,0,0,0,.27-.14.29.29,0,0,0,0-.22.29.29,0,0,0-.12-.18.48.48,0,0,0-.3,0l-.62.13-.7-3.42a1.85,1.85,0,0,0-.5-.93,2,2,0,0,0-.9-.55,2.43,2.43,0,0,0-1.14,0,2.52,2.52,0,0,0-1,.45,3.79,3.79,0,0,0-.85,1l-.69-3.4-1.3.26a.43.43,0,0,0-.27.14.25.25,0,0,0,0,.21.27.27,0,0,0,.13.19.41.41,0,0,0,.3,0l.74-.15,1.45,7.14-.62.12a.49.49,0,0,0-.27.14.26.26,0,0,0,.08.39.41.41,0,0,0,.3,0l1.81-.37a.38.38,0,0,0,.26-.14.26.26,0,0,0,0-.21.23.23,0,0,0-.13-.18.41.41,0,0,0-.3,0l-.62.12-.71-3.49a6.68,6.68,0,0,1,.82-1.2,1.72,1.72,0,0,1,1-.51A1.74,1.74,0,0,1,178,194a1.34,1.34,0,0,1,.64.91l.69,3.38-.62.13A.49.49,0,0,0,178.44,198.54Z"/><path d="M297.71,49.39a.38.38,0,0,0-.14-.26.25.25,0,0,0-.22-.05.27.27,0,0,0-.18.13.41.41,0,0,0,0,.3l.33,1.63-1,.2a.49.49,0,0,0-.27.14.23.23,0,0,0,0,.21.23.23,0,0,0,.12.19.41.41,0,0,0,.3,0l1-.21.75,3.68a1.49,1.49,0,0,0,.82,1.1,2.4,2.4,0,0,0,1.64.14,5.24,5.24,0,0,0,1.5-.57,2.72,2.72,0,0,0,.93-.67.28.28,0,0,0,0-.21.23.23,0,0,0-.12-.17.24.24,0,0,0-.2-.05.48.48,0,0,0-.2.13,3.94,3.94,0,0,1-.94.59,5,5,0,0,1-1.18.41,1.77,1.77,0,0,1-1.19-.09,1,1,0,0,1-.55-.73l-.75-3.67,3-.61a.43.43,0,0,0,.27-.14.25.25,0,0,0,0-.21.27.27,0,0,0-.13-.19.41.41,0,0,0-.3,0L298,51Z"/><path d="M249.73,133.57a.24.24,0,0,0,0,.22.23.23,0,0,0,.12.18.44.44,0,0,0,.31,0l1.48-.3a.43.43,0,0,0,.27-.14.22.22,0,0,0,0-.21.26.26,0,0,0-.12-.19.49.49,0,0,0-.3,0l-.47.09-.71-3.48a1.6,1.6,0,0,0-.49-.87,1.86,1.86,0,0,0-.8-.52,2.47,2.47,0,0,0-1.21,0,2.56,2.56,0,0,0-1,.43,4.48,4.48,0,0,0-.88,1l-.17-.83-1,.21a.39.39,0,0,0-.27.14.25.25,0,0,0,0,.21.3.3,0,0,0,.12.19.48.48,0,0,0,.3,0l.47-.1.93,4.58-.62.13a.49.49,0,0,0-.27.13.28.28,0,0,0,0,.22.27.27,0,0,0,.13.18.41.41,0,0,0,.3,0l1.81-.37a.38.38,0,0,0,.26-.13.29.29,0,0,0,0-.22.27.27,0,0,0-.13-.18.48.48,0,0,0-.3,0l-.62.13-.71-3.46a5.06,5.06,0,0,1,.93-1.33,1.88,1.88,0,0,1,.9-.41,1.59,1.59,0,0,1,1.23.17,1.33,1.33,0,0,1,.63.9l.69,3.38-.46.1A.49.49,0,0,0,249.73,133.57Z"/><path d="M217.47,140.14a.25.25,0,0,0,0,.21.24.24,0,0,0,.13.18.41.41,0,0,0,.3,0l2-.41a.43.43,0,0,0,.28-.14.3.3,0,0,0-.08-.4.51.51,0,0,0-.31,0l-.46.09L218,133.09l.34-.06a.49.49,0,0,0,.28-.14.27.27,0,0,0,0-.22.26.26,0,0,0-.12-.18.5.5,0,0,0-.31,0l-1.36.28-1.09,5.18-3.06-4.33-1.36.27a.43.43,0,0,0-.27.14.22.22,0,0,0,0,.21.26.26,0,0,0,.12.19.49.49,0,0,0,.3,0l.35-.07,1.34,6.59-.47.09a.42.42,0,0,0-.26.14.24.24,0,0,0,0,.22.27.27,0,0,0,.13.17.39.39,0,0,0,.3,0l2-.42a.38.38,0,0,0,.26-.14.23.23,0,0,0,0-.21.27.27,0,0,0-.13-.18.38.38,0,0,0-.29,0l-1,.21-1.34-6.59.11,0,3.11,4.4.63-.13,1.11-5.26.12,0,1.34,6.58-1,.21A.43.43,0,0,0,217.47,140.14Z"/><path d="M261.27,63.6l.17.8,1.29-.27A.43.43,0,0,0,263,64a.29.29,0,0,0,0-.22.26.26,0,0,0-.12-.18.44.44,0,0,0-.31,0l-.74.15-.74-3.65a1.54,1.54,0,0,0-.82-1,2.44,2.44,0,0,0-1.74-.18,6.68,6.68,0,0,0-1.5.59,2.29,2.29,0,0,0-.69.42.21.21,0,0,0,0,.19.26.26,0,0,0,.31.22.72.72,0,0,0,.26-.12,6.77,6.77,0,0,1,1.73-.74,2.07,2.07,0,0,1,1.34.08,1,1,0,0,1,.58.7l.18.9c-.36,0-.69,0-1,0s-.58.07-.84.12a3.46,3.46,0,0,0-2,1,1.84,1.84,0,0,0-.46,1.55,1.61,1.61,0,0,0,.82,1.12,2.29,2.29,0,0,0,1.65.19A4,4,0,0,0,261.27,63.6ZM260,64a3.28,3.28,0,0,1-1.28.55,1.7,1.7,0,0,1-1.21-.11,1.08,1.08,0,0,1-.56-.76,1.16,1.16,0,0,1,.32-1,3.11,3.11,0,0,1,1.78-.9,8.06,8.06,0,0,1,.93-.14,6.17,6.17,0,0,1,.86,0l.24,1.22A5.16,5.16,0,0,1,260,64Z"/><path d="M199.05,194.35a.25.25,0,0,0-.05.22.27.27,0,0,0,.13.18.4.4,0,0,0,.3,0l4.9-1a.4.4,0,0,0,.27-.13.29.29,0,0,0,.05-.22.27.27,0,0,0-.13-.18.41.41,0,0,0-.3,0l-2.18.44L200.48,186l-2.15.43a.49.49,0,0,0-.28.14.29.29,0,0,0,0,.22.24.24,0,0,0,.13.18.41.41,0,0,0,.3,0l1.6-.32,1.45,7.14-2.18.44A.42.42,0,0,0,199.05,194.35Z"/><path d="M206.76,192.55a.23.23,0,0,0,.12.17.26.26,0,0,0,.21.05.5.5,0,0,0,.2-.13l5.31-4.54L205.94,186a.53.53,0,0,0-.23,0,.25.25,0,0,0-.18.12.25.25,0,0,0,0,.21c0,.11.11.19.28.24l5.7,1.8-4.55,3.88C206.79,192.33,206.73,192.44,206.76,192.55Z"/><path d="M194.41,190.24a.8.8,0,0,1,.65.16,1,1,0,0,1,.4.64l.88,4.36,1-.21c.14,0,.23-.07.27-.14a.26.26,0,0,0,.05-.21.25.25,0,0,0-.13-.18.41.41,0,0,0-.3,0l-.47.09-.78-3.85a1.59,1.59,0,0,0-.69-1,1.24,1.24,0,0,0-1-.19,1.5,1.5,0,0,0-.71.38,3,3,0,0,0-.61.84,1.74,1.74,0,0,0-.68-.58,1.28,1.28,0,0,0-.8-.07,2,2,0,0,0-1.26,1l-.11-.56-1,.21a.41.41,0,0,0-.27.14.26.26,0,0,0-.05.21.29.29,0,0,0,.13.19.48.48,0,0,0,.3,0l.47-.1.93,4.58-.47.1a.49.49,0,0,0-.27.13.28.28,0,0,0,0,.22.29.29,0,0,0,.12.18.41.41,0,0,0,.3,0l1.49-.3a.41.41,0,0,0,.27-.14.26.26,0,0,0,0-.21.27.27,0,0,0-.13-.19.42.42,0,0,0-.3,0l-.47.09-.74-3.66a3.42,3.42,0,0,1,.65-1.1,1.13,1.13,0,0,1,.55-.31.78.78,0,0,1,.64.17,1.06,1.06,0,0,1,.41.67l.88,4.32,1-.21a.43.43,0,0,0,.27-.13.29.29,0,0,0,0-.22.26.26,0,0,0-.12-.18.41.41,0,0,0-.3,0l-.46.09-.75-3.66a3.25,3.25,0,0,1,.58-1A1.21,1.21,0,0,1,194.41,190.24Z"/><path d="M253.71,131.89a2.79,2.79,0,0,0,1.32.91,2.92,2.92,0,0,0,3.69-1.71l.23,1.1,1.3-.26a.49.49,0,0,0,.27-.14.26.26,0,0,0,.05-.21.27.27,0,0,0-.13-.19.45.45,0,0,0-.31,0l-.73.15-1.57-7.7-1.3.26a.42.42,0,0,0-.27.14.29.29,0,0,0-.05.22.27.27,0,0,0,.13.18.44.44,0,0,0,.31,0l.73-.15.64,3.12a3,3,0,0,0-2.71-.82,2.78,2.78,0,0,0-1.36.7,2.91,2.91,0,0,0-.86,1.35,3.13,3.13,0,0,0-.09,1.6A3.25,3.25,0,0,0,253.71,131.89Zm.2-3.47a2.39,2.39,0,0,1,3.39-.69,2.63,2.63,0,0,1,.72,3.55,2.39,2.39,0,0,1-3.39.69,2.6,2.6,0,0,1-.72-3.55Z"/><path d="M223.06,14.11a.38.38,0,0,0-.13-.26.29.29,0,0,0-.22,0,.31.31,0,0,0-.19.13.48.48,0,0,0,0,.3l.34,1.63-1,.21a.38.38,0,0,0-.26.13.25.25,0,0,0-.05.22.27.27,0,0,0,.13.18.47.47,0,0,0,.3,0l1-.21.75,3.67a1.5,1.5,0,0,0,.82,1.11,2.49,2.49,0,0,0,1.63.14,5.29,5.29,0,0,0,1.51-.57,2.84,2.84,0,0,0,.93-.68.31.31,0,0,0,0-.2.29.29,0,0,0-.12-.18.25.25,0,0,0-.2,0,.36.36,0,0,0-.2.13,4.86,4.86,0,0,1-.94.58,4.75,4.75,0,0,1-1.18.41,1.8,1.8,0,0,1-1.2-.09,1,1,0,0,1-.54-.72l-.75-3.68,3-.61a.43.43,0,0,0,.27-.13.29.29,0,0,0,.05-.22.31.31,0,0,0-.13-.19.48.48,0,0,0-.3,0l-3,.62Z"/><path d="M227.54,66.1a2,2,0,0,1,.82-.47.84.84,0,0,1,.35,0,1.66,1.66,0,0,1,.47.23,1.08,1.08,0,0,0,.2.12.24.24,0,0,0,.12,0,.31.31,0,0,0,.19-.13.28.28,0,0,0,0-.22c0-.12-.2-.26-.53-.42a1.51,1.51,0,0,0-1-.14,2.18,2.18,0,0,0-.93.48,9,9,0,0,0-1.36,1.58l-.29-1.39-1.57.32a.38.38,0,0,0-.27.13.25.25,0,0,0,0,.22.23.23,0,0,0,.12.18.41.41,0,0,0,.3,0l1-.21.94,4.6-1.34.27a.45.45,0,0,0-.27.13.23.23,0,0,0,0,.21.2.2,0,0,0,.12.17.41.41,0,0,0,.3,0l4.34-.88c.14,0,.23-.07.27-.14a.23.23,0,0,0,.05-.21.27.27,0,0,0-.13-.19.48.48,0,0,0-.3,0l-2.45.5-.62-3A13.45,13.45,0,0,1,227.54,66.1Z"/><path d="M235.61,69.88a3.22,3.22,0,0,0,1.88-.95,1.62,1.62,0,0,0,.42-1.4,1.39,1.39,0,0,0-.49-.81,2.06,2.06,0,0,0-1.08-.45,8.31,8.31,0,0,0-1.66,0,3.61,3.61,0,0,1-1.26,0,.77.77,0,0,1-.59-.56.79.79,0,0,1,.26-.71,2.36,2.36,0,0,1,1.37-.67,2.56,2.56,0,0,1,1.5.07.9.9,0,0,1,.54.57.37.37,0,0,0,.14.22.24.24,0,0,0,.2,0,.25.25,0,0,0,.19-.12.41.41,0,0,0,0-.3l-.19-1a.49.49,0,0,0-.14-.27.24.24,0,0,0-.22,0,.23.23,0,0,0-.18.12.44.44,0,0,0,0,.29,3.05,3.05,0,0,0-2-.18,3.38,3.38,0,0,0-1.59.76,1.31,1.31,0,0,0-.47,1.27,1.25,1.25,0,0,0,.41.68,1.54,1.54,0,0,0,.8.38,6.72,6.72,0,0,0,1.53,0,4.24,4.24,0,0,1,1.66.09,1,1,0,0,1,.7.72,1.13,1.13,0,0,1-.35.95,2.74,2.74,0,0,1-1.53.73,3.53,3.53,0,0,1-1.28,0,1.73,1.73,0,0,1-.84-.38.8.8,0,0,1-.25-.47.31.31,0,0,0-.13-.21.34.34,0,0,0-.22,0,.27.27,0,0,0-.18.13.41.41,0,0,0,0,.3l.23,1.13a.43.43,0,0,0,.14.27.26.26,0,0,0,.21,0,.36.36,0,0,0,.15-.08.28.28,0,0,0,.07-.13,1,1,0,0,0,0-.3A3.4,3.4,0,0,0,235.61,69.88Z"/><path d="M239.68,132.45a3.41,3.41,0,0,0-2,1,1.79,1.79,0,0,0-.45,1.55,1.65,1.65,0,0,0,.81,1.12,2.27,2.27,0,0,0,1.66.18,4,4,0,0,0,2.37-1.53l.16.79,1.3-.26a.42.42,0,0,0,.27-.14.23.23,0,0,0,.05-.21.27.27,0,0,0-.13-.19.42.42,0,0,0-.3,0l-.74.15-.74-3.66a1.6,1.6,0,0,0-.83-1.05,2.48,2.48,0,0,0-1.74-.18,6.86,6.86,0,0,0-1.5.59,2.83,2.83,0,0,0-.69.42.33.33,0,0,0,0,.2.36.36,0,0,0,.12.18.28.28,0,0,0,.2,0l.25-.12a6.7,6.7,0,0,1,1.74-.75,2.11,2.11,0,0,1,1.33.08,1,1,0,0,1,.59.71l.18.89c-.36,0-.7,0-1,0A8.47,8.47,0,0,0,239.68,132.45Zm1.95.4.25,1.22a5,5,0,0,1-1.08,1.17,3.29,3.29,0,0,1-1.28.56,1.76,1.76,0,0,1-1.21-.11,1.08,1.08,0,0,1-.56-.76,1.15,1.15,0,0,1,.32-1,3.2,3.2,0,0,1,1.78-.9,8,8,0,0,1,.93-.13A4.85,4.85,0,0,1,241.63,132.85Z"/><path d="M246.77,16.18a.23.23,0,0,0,.12.18.22.22,0,0,0,.21,0,.49.49,0,0,0,.2-.12l5.31-4.54L246,9.63a.44.44,0,0,0-.23,0,.32.32,0,0,0-.18.13.25.25,0,0,0,0,.21c0,.11.12.19.28.24l5.7,1.8-4.55,3.88C246.8,16,246.74,16.07,246.77,16.18Z"/><path d="M245.7,66.89a3.11,3.11,0,0,0-3.25-4.76,3,3,0,0,0-2,1.34,3.09,3.09,0,0,0,.88,4.31,3.19,3.19,0,0,0,4.38-.89Zm-2.12.79a2.49,2.49,0,0,1-2-.37,2.44,2.44,0,0,1-1.1-1.61,2.4,2.4,0,0,1,.39-1.91,2.48,2.48,0,0,1,1.64-1.1,2.53,2.53,0,0,1,1.95.36,2.46,2.46,0,0,1,1.1,1.62,2.43,2.43,0,0,1-.39,1.92A2.5,2.5,0,0,1,243.58,67.68Z"/><path d="M239.06,18a.27.27,0,0,0-.05.22.27.27,0,0,0,.13.18.48.48,0,0,0,.3,0l4.9-1c.14,0,.23-.07.27-.14a.23.23,0,0,0,0-.21.23.23,0,0,0-.13-.18.41.41,0,0,0-.3,0l-2.18.44-1.56-7.7-2.15.44a.42.42,0,0,0-.27.14.23.23,0,0,0,0,.21.27.27,0,0,0,.13.19.41.41,0,0,0,.3,0l1.6-.32,1.45,7.13-2.17.45A.38.38,0,0,0,239.06,18Z"/><path d="M164.17,186.28q.17,0,.24-.3l2.51-10.43a.49.49,0,0,0,0-.23.25.25,0,0,0-.11-.16.29.29,0,0,0-.22,0,.22.22,0,0,0-.14.08.41.41,0,0,0-.1.22l-2.51,10.42a.53.53,0,0,0,0,.23.33.33,0,0,0,.12.17A.29.29,0,0,0,164.17,186.28Z"/><path d="M182.44,181.63a3,3,0,0,0,2-1.34,3.08,3.08,0,0,0-.88-4.32,3.07,3.07,0,0,0-2.36-.45,3.13,3.13,0,0,0-2,1.35,3.09,3.09,0,0,0,.88,4.31A3,3,0,0,0,182.44,181.63Zm-2.06-.92a2.4,2.4,0,0,1-1.1-1.61,2.43,2.43,0,0,1,.38-1.92,2.61,2.61,0,0,1,3.59-.73A2.53,2.53,0,0,1,184,180a2.61,2.61,0,0,1-3.59.73Z"/><path d="M181.92,193l1-.21.74,3.67a1.5,1.5,0,0,0,.83,1.11,2.49,2.49,0,0,0,1.63.14,5.29,5.29,0,0,0,1.51-.57,2.84,2.84,0,0,0,.93-.68.3.3,0,0,0,0-.2.36.36,0,0,0-.12-.18.25.25,0,0,0-.2,0,.41.41,0,0,0-.21.13,4.07,4.07,0,0,1-.93.58,5.26,5.26,0,0,1-1.18.42,1.73,1.73,0,0,1-1.2-.1,1,1,0,0,1-.54-.72l-.75-3.67,3-.62a.43.43,0,0,0,.27-.13.25.25,0,0,0,0-.22.23.23,0,0,0-.12-.18.41.41,0,0,0-.3,0l-3,.61-.33-1.63a.43.43,0,0,0-.13-.27.26.26,0,0,0-.23,0,.23.23,0,0,0-.18.12.48.48,0,0,0,0,.3l.33,1.63-1,.21a.38.38,0,0,0-.26.14.23.23,0,0,0,0,.21.29.29,0,0,0,.13.19A.46.46,0,0,0,181.92,193Z"/><path d="M162.8,42.24l-2.15.43a.49.49,0,0,0-.28.14.26.26,0,0,0,0,.21.24.24,0,0,0,.13.19.41.41,0,0,0,.3,0l1.6-.32,1.45,7.14-2.18.44a.38.38,0,0,0-.26.13.25.25,0,0,0-.05.22.27.27,0,0,0,.13.18.4.4,0,0,0,.3,0l4.9-1a.41.41,0,0,0,.27-.14.26.26,0,0,0,.05-.21.27.27,0,0,0-.13-.18.41.41,0,0,0-.3,0l-2.18.44Z"/><path d="M202.66,169.84a.49.49,0,0,0-.24,0,.36.36,0,0,0-.18.12.34.34,0,0,0,0,.22.37.37,0,0,0,.28.24l5.7,1.8-4.55,3.88a.35.35,0,0,0-.16.33.23.23,0,0,0,.12.18.27.27,0,0,0,.21,0,.49.49,0,0,0,.2-.12l5.31-4.54Z"/><path d="M190.24,180a3,3,0,0,0,2.18-1.81l.22,1.1,1.3-.26a.42.42,0,0,0,.27-.14.29.29,0,0,0,0-.22.27.27,0,0,0-.13-.18.48.48,0,0,0-.3,0l-.74.15L191.52,171l-1.3.26a.43.43,0,0,0-.27.14.26.26,0,0,0,0,.21.27.27,0,0,0,.13.19.44.44,0,0,0,.31,0l.74-.15.63,3.11a3,3,0,0,0-2.71-.81,2.85,2.85,0,0,0-1.36.69,3,3,0,0,0-.86,1.36,3.15,3.15,0,0,0,.62,3,3,3,0,0,0,1.32.91A2.83,2.83,0,0,0,190.24,180Zm-3-2.56a2.44,2.44,0,0,1,.35-1.92,2.39,2.39,0,0,1,3.39-.69,2.47,2.47,0,0,1,1.07,1.63,2.42,2.42,0,0,1-.35,1.91,2.39,2.39,0,0,1-3.39.69A2.47,2.47,0,0,1,187.25,177.48Z"/><path d="M170.42,149.76a.23.23,0,0,0,.18-.12.27.27,0,0,0,0-.21c0-.11-.11-.19-.28-.25l-5.7-1.79,4.55-3.88c.13-.12.19-.23.17-.34a.36.36,0,0,0-.12-.18.29.29,0,0,0-.22,0,.67.67,0,0,0-.2.12l-5.3,4.55,6.65,2.11A.56.56,0,0,0,170.42,149.76Z"/><path d="M213.71,157.2a2.81,2.81,0,0,0,.44-2.21,2.87,2.87,0,0,0-.67-1.35,2.66,2.66,0,0,0-1.28-.85,3.17,3.17,0,0,0-1.59-.07,2.75,2.75,0,0,0-1.27.57,3.62,3.62,0,0,0-.88,1.12l-.21-1-1.3.27a.38.38,0,0,0-.26.13.29.29,0,0,0-.05.22.27.27,0,0,0,.13.18.41.41,0,0,0,.3,0l.74-.16,1.45,7.12-.74.15a.49.49,0,0,0-.27.14.27.27,0,0,0-.05.22.27.27,0,0,0,.13.18.48.48,0,0,0,.3,0l2.64-.54a.43.43,0,0,0,.27-.14.22.22,0,0,0,0-.21.26.26,0,0,0-.12-.19.49.49,0,0,0-.3,0l-1.35.27-.67-3.33a3.06,3.06,0,0,0,4.57-.55Zm-2,.71a2.38,2.38,0,0,1-1.84-.34,2.31,2.31,0,0,1-.67-3.26,2.45,2.45,0,0,1,1.57-1,2.42,2.42,0,0,1,1.84.34,2.33,2.33,0,0,1,.66,3.27A2.39,2.39,0,0,1,211.67,157.91Z"/><path d="M199.89,180.41a.28.28,0,0,0-.08-.39.41.41,0,0,0-.3,0l-.87.18,2.06-7.84a1.39,1.39,0,0,0,.37-.1.27.27,0,0,0,.1-.11.35.35,0,0,0,0-.17.27.27,0,0,0-.13-.19.44.44,0,0,0-.31,0l-1.51.31a.42.42,0,0,0-.26.13.29.29,0,0,0,0,.22.27.27,0,0,0,.13.18.41.41,0,0,0,.3,0l.74-.15-1.3,5-3.18-4.07.74-.15a.49.49,0,0,0,.27-.14.26.26,0,0,0,0-.21.26.26,0,0,0-.12-.19.41.41,0,0,0-.3,0l-1.52.31a.56.56,0,0,0-.21.07.27.27,0,0,0-.09.12.29.29,0,0,0,0,.16.24.24,0,0,0,.13.18.43.43,0,0,0,.29,0l.17,0,3.61,4.61-.57,2.19-1.73.35a.49.49,0,0,0-.27.13.24.24,0,0,0,0,.22.26.26,0,0,0,.12.18.41.41,0,0,0,.3,0l3.19-.65A.43.43,0,0,0,199.89,180.41Z"/><path d="M162.1,134.37a3.12,3.12,0,0,0,2.38.45,3,3,0,0,0,2-1.34,3,3,0,0,0,.47-2.34,3,3,0,0,0-1.35-2,3.17,3.17,0,0,0-4.37.9,3.08,3.08,0,0,0,.87,4.31Zm-.4-4a2.61,2.61,0,0,1,3.59-.73,2.42,2.42,0,0,1,1.1,1.61,2.47,2.47,0,0,1-.38,1.92,2.61,2.61,0,0,1-3.59.73,2.52,2.52,0,0,1-.72-3.53Z"/><path d="M155.88,46.34a3,3,0,0,0-.61.84,1.74,1.74,0,0,0-.68-.58,1.35,1.35,0,0,0-.8-.08,2.06,2.06,0,0,0-1.26,1l-.11-.56-1,.21a.4.4,0,0,0-.27.13.29.29,0,0,0,0,.22.31.31,0,0,0,.13.19.48.48,0,0,0,.3,0l.47-.1.93,4.58-.47.1a.43.43,0,0,0-.27.13.28.28,0,0,0,0,.22.27.27,0,0,0,.13.18.38.38,0,0,0,.29,0l1.49-.3a.45.45,0,0,0,.27-.14.28.28,0,0,0-.08-.4.48.48,0,0,0-.3,0l-.47.1-.74-3.66a3.31,3.31,0,0,1,.65-1.1,1.06,1.06,0,0,1,.55-.31.78.78,0,0,1,.64.17,1.06,1.06,0,0,1,.41.67l.88,4.32,1-.21a.39.39,0,0,0,.27-.14.28.28,0,0,0-.08-.39.41.41,0,0,0-.3,0l-.46.09-.75-3.66a3.06,3.06,0,0,1,.59-1,1.14,1.14,0,0,1,.59-.36.83.83,0,0,1,.65.15,1,1,0,0,1,.4.65l.88,4.36,1-.21a.41.41,0,0,0,.27-.14.26.26,0,0,0,.05-.21.23.23,0,0,0-.13-.18.41.41,0,0,0-.3,0l-.47.09-.78-3.86a1.6,1.6,0,0,0-.69-1,1.24,1.24,0,0,0-1-.19A1.42,1.42,0,0,0,155.88,46.34Z"/><path d="M162.64,27.92a3.71,3.71,0,0,0-1.53-1.22,3.07,3.07,0,0,0-1.79-.18,3.15,3.15,0,0,0-2.13,1.61A4.75,4.75,0,0,0,158.37,34a3.16,3.16,0,0,0,2.59.65,3,3,0,0,0,1.58-.87,3.53,3.53,0,0,0,.94-1.72,4.82,4.82,0,0,0,0-2.14A4.68,4.68,0,0,0,162.64,27.92Zm0,4.65a2.46,2.46,0,0,1-1.81,1.48,2.58,2.58,0,0,1-2.15-.58,3.71,3.71,0,0,1-1.38-2.34,3.85,3.85,0,0,1,.32-2.63,2.55,2.55,0,0,1,1.79-1.43,2.46,2.46,0,0,1,2.25.66A4.1,4.1,0,0,1,163,30,4,4,0,0,1,162.66,32.57Z"/><path d="M157.28,85.15a.3.3,0,0,0,.17-.12.28.28,0,0,0,.05-.21c0-.11-.12-.19-.29-.25l-5.69-1.8,4.54-3.88a.34.34,0,0,0,.17-.33.29.29,0,0,0-.12-.18.27.27,0,0,0-.21,0,.49.49,0,0,0-.2.12L150.39,83,157,85.11A.49.49,0,0,0,157.28,85.15Z"/><path d="M151,121.67a.35.35,0,0,0,.24-.3l2.52-10.43a.68.68,0,0,0,0-.23.31.31,0,0,0-.12-.16.23.23,0,0,0-.21,0,.26.26,0,0,0-.15.07.55.55,0,0,0-.1.23l-2.51,10.42a.49.49,0,0,0,0,.23.25.25,0,0,0,.12.17A.3.3,0,0,0,151,121.67Z"/><path d="M160.8,185.36a.25.25,0,0,0,.18-.12.25.25,0,0,0,0-.21c0-.11-.11-.19-.28-.24L155,183l4.55-3.88c.13-.12.19-.23.17-.34a.32.32,0,0,0-.13-.18.3.3,0,0,0-.21,0,.5.5,0,0,0-.2.13l-5.3,4.54,6.65,2.11A.54.54,0,0,0,160.8,185.36Z"/><path d="M173.71,165.91a.25.25,0,0,0,.18-.12.25.25,0,0,0,0-.21c0-.11-.12-.19-.28-.24l-5.7-1.8,4.55-3.88c.13-.12.19-.23.16-.34a.23.23,0,0,0-.12-.17.26.26,0,0,0-.21-.05.5.5,0,0,0-.2.13l-5.31,4.54,6.66,2.11A.53.53,0,0,0,173.71,165.91Z"/><path d="M134.51,56.14a.3.3,0,0,0,.17-.12.29.29,0,0,0,0-.22.39.39,0,0,0-.29-.24l-2.9-.91-.28.5,3,1A.49.49,0,0,0,134.51,56.14Z"/><path d="M170.21,191.71a.7.7,0,0,0,0-.23.25.25,0,0,0-.12-.17.3.3,0,0,0-.21,0,.28.28,0,0,0-.15.08.65.65,0,0,0-.1.22l-1.8,7.51.5.32Z"/><path d="M150.94,136.9a.27.27,0,0,0,.18-.12.25.25,0,0,0,0-.21c0-.11-.12-.19-.28-.24l-5.7-1.8,4.55-3.88c.13-.12.19-.23.16-.34a.23.23,0,0,0-.12-.17.26.26,0,0,0-.21,0,.5.5,0,0,0-.2.13l-5.31,4.54,6.66,2.11A.53.53,0,0,0,150.94,136.9Z"/><path d="M215.33,150.35a.32.32,0,0,0-.18.13.25.25,0,0,0,0,.21c0,.11.12.19.28.24l5.7,1.8-4.55,3.88c-.13.11-.19.23-.16.33a.28.28,0,0,0,.33.22.49.49,0,0,0,.2-.12l5.31-4.54-6.66-2.11A.58.58,0,0,0,215.33,150.35Z"/><path d="M227.12,135.81a.38.38,0,0,0-.13-.27.25.25,0,0,0-.22,0,.23.23,0,0,0-.18.12.41.41,0,0,0,0,.3l.45,2.2-3.68.74L222,132.28l1.32-.27a.49.49,0,0,0,.27-.13.24.24,0,0,0,0-.22.22.22,0,0,0-.12-.18.41.41,0,0,0-.3,0l-3.2.65a.42.42,0,0,0-.26.13.25.25,0,0,0-.05.22.27.27,0,0,0,.13.18.41.41,0,0,0,.3,0l1.31-.27,1.34,6.59-1.31.27a.4.4,0,0,0-.27.13.27.27,0,0,0-.05.22.27.27,0,0,0,.13.18.41.41,0,0,0,.3,0l6.11-1.25Z"/><path d="M324,118.87a.29.29,0,0,0,0-.22.26.26,0,0,0-.12-.18.48.48,0,0,0-.3,0l-1.9.39L320.15,111l-2.37,1.31a.67.67,0,0,0-.19.16.32.32,0,0,0,0,.19.29.29,0,0,0,.12.18.25.25,0,0,0,.2,0l.18-.08,1.69-.93,1.44,7-1.9.39a.49.49,0,0,0-.27.13.24.24,0,0,0,0,.22.23.23,0,0,0,.12.18.41.41,0,0,0,.3,0l4.35-.88A.49.49,0,0,0,324,118.87Z"/><path d="M300,123.4a.32.32,0,0,0,.18-.13.3.3,0,0,0,0-.21c0-.11-.12-.19-.28-.24l-5.7-1.8,4.55-3.88c.13-.11.19-.22.16-.33a.28.28,0,0,0-.33-.22.57.57,0,0,0-.2.12l-5.31,4.54,6.66,2.11A.58.58,0,0,0,300,123.4Z"/><path d="M151.75,28.82a2.15,2.15,0,0,1,1,0,2.18,2.18,0,0,1,.81.38,4.37,4.37,0,0,1,.9,1,2.5,2.5,0,0,1,.35.88l.2,1a3,3,0,0,1-.75,2.58,2.13,2.13,0,0,1-1.21.72l-2,.41L150,30.31l-.48.47,1.05,5.15-.47.09a.49.49,0,0,0-.27.13.25.25,0,0,0,0,.22.23.23,0,0,0,.12.18.41.41,0,0,0,.3,0l3-.6a2.82,2.82,0,0,0,1.42-.74,3.59,3.59,0,0,0,1-1.65,4,4,0,0,0,0-1.72l-.15-.76a3.6,3.6,0,0,0-.44-1.16,5,5,0,0,0-1.06-1.16,2.71,2.71,0,0,0-1-.47,2.66,2.66,0,0,0-.8-.08l-.71.66Z"/><path d="M203.83,23.09a.29.29,0,0,0-.22-.05.25.25,0,0,0-.18.13.41.41,0,0,0,0,.3l.33,1.63-4.26.86-.64-3.16,2-.4L201,23a.43.43,0,0,0,.14.27.24.24,0,0,0,.22,0,.26.26,0,0,0,.18-.12.41.41,0,0,0,0-.3l-.37-1.8a.43.43,0,0,0-.13-.27.29.29,0,0,0-.22,0,.28.28,0,0,0-.19.12.48.48,0,0,0,0,.3l.13.63-2,.4-.59-2.87,4-.81.27,1.35a.43.43,0,0,0,.14.27.25.25,0,0,0,.21,0,.27.27,0,0,0,.19-.13.44.44,0,0,0,0-.29l-.39-1.9-5.82,1.18a.49.49,0,0,0-.27.13.28.28,0,0,0,0,.22.25.25,0,0,0,.13.18.38.38,0,0,0,.29,0l.75-.15,1.34,6.59-.75.15a.38.38,0,0,0-.26.13.25.25,0,0,0,0,.22.27.27,0,0,0,.13.18.41.41,0,0,0,.3,0l6.1-1.24L204,23.35A.42.42,0,0,0,203.83,23.09Z"/><path d="M222.12,71.69a.33.33,0,0,0,.06-.24.29.29,0,0,0-.12-.18.24.24,0,0,0-.2,0,.39.39,0,0,0-.2.14,3.49,3.49,0,0,1-1,.76,4.53,4.53,0,0,1-1.26.47,2.83,2.83,0,0,1-2-.27,2.74,2.74,0,0,1-1.25-1.55l5.64-1.14a3.15,3.15,0,0,0-1.33-2.12,3.11,3.11,0,0,0-2.42-.43,3.16,3.16,0,0,0-2,1.31,2.8,2.8,0,0,0-.47,2.25A3.1,3.1,0,0,0,217,72.71a3.29,3.29,0,0,0,2.56.44,4.89,4.89,0,0,0,1.6-.62A3.09,3.09,0,0,0,222.12,71.69Zm-5.5-3.13a2.56,2.56,0,0,1,1.55-.91,2.67,2.67,0,0,1,1.79.23,2.48,2.48,0,0,1,1.16,1.31l-5.07,1A2.45,2.45,0,0,1,216.62,68.56Z"/><path d="M198.9,69.59a.23.23,0,0,0-.18.12.26.26,0,0,0,0,.21c0,.11.11.19.28.24l5.7,1.8-4.55,3.88c-.14.12-.19.23-.17.34a.36.36,0,0,0,.12.18.32.32,0,0,0,.21,0,.51.51,0,0,0,.21-.13l5.3-4.54-6.65-2.11A.56.56,0,0,0,198.9,69.59Z"/><path d="M143.8,37.37a.66.66,0,0,0,.3.43.68.68,0,0,0,.52.11l.26-.06a.66.66,0,0,0,.44-.29.67.67,0,0,0,.11-.53.68.68,0,0,0-.3-.44.66.66,0,0,0-.53-.1l-.26,0a.75.75,0,0,0-.38.23l-.06.08A.68.68,0,0,0,143.8,37.37Z"/><path d="M136,48.28l1.45,7.14-.62.12a.41.41,0,0,0-.27.14.26.26,0,0,0-.05.21.27.27,0,0,0,.13.18.41.41,0,0,0,.3,0l1.8-.37c.14,0,.23-.07.27-.14a.26.26,0,0,0,.05-.21.27.27,0,0,0-.13-.19.49.49,0,0,0-.3,0l-.62.12-.71-3.49a7.43,7.43,0,0,1,.81-1.2,1.78,1.78,0,0,1,1-.51,1.74,1.74,0,0,1,1.28.16,1.34,1.34,0,0,1,.64.91l.69,3.38-.62.13a.49.49,0,0,0-.28.13.25.25,0,0,0,0,.22.23.23,0,0,0,.12.18.44.44,0,0,0,.31,0l1.8-.37a.43.43,0,0,0,.27-.13.29.29,0,0,0,0-.22.29.29,0,0,0-.12-.18.41.41,0,0,0-.3,0l-.62.13-.7-3.43a1.8,1.8,0,0,0-.51-.92,1.87,1.87,0,0,0-.89-.55,2.43,2.43,0,0,0-1.14,0,2.52,2.52,0,0,0-1,.45,3.89,3.89,0,0,0-.85,1l-.69-3.39-.64.13c-.15.22-.29.44-.43.67Z"/><path d="M136.75,65.7a.32.32,0,0,0-.13-.18.3.3,0,0,0-.21,0,.67.67,0,0,0-.2.12l-5.3,4.55,6.65,2.11a.54.54,0,0,0,.23,0,.26.26,0,0,0,.18-.12.27.27,0,0,0,0-.21c0-.11-.11-.19-.28-.24l-5.7-1.8L136.58,66A.36.36,0,0,0,136.75,65.7Z"/><path d="M186.35,146.88a.23.23,0,0,0,.05-.21.27.27,0,0,0-.13-.19.47.47,0,0,0-.3,0l-1.89.38L182.49,139l-2.37,1.31a1,1,0,0,0-.2.16.28.28,0,0,0,0,.2.27.27,0,0,0,.12.18.28.28,0,0,0,.2,0,.62.62,0,0,0,.18-.08l1.69-.93,1.43,7.05-1.89.38a.42.42,0,0,0-.27.13.29.29,0,0,0-.05.22.27.27,0,0,0,.13.18.41.41,0,0,0,.3,0l4.35-.88A.38.38,0,0,0,186.35,146.88Z"/><path d="M185.51,129.58a.26.26,0,0,0,.12.18.27.27,0,0,0,.21,0,.49.49,0,0,0,.2-.12l5.31-4.54L184.7,123a.49.49,0,0,0-.24,0,.3.3,0,0,0-.17.12.28.28,0,0,0,0,.21c0,.11.12.19.29.25l5.69,1.79-4.55,3.89A.35.35,0,0,0,185.51,129.58Z"/><path d="M186.11,90.7a.29.29,0,0,0-.05.22.27.27,0,0,0,.13.18.47.47,0,0,0,.3,0l1-.21.75,3.67a1.53,1.53,0,0,0,.82,1.11,2.49,2.49,0,0,0,1.63.14,5.29,5.29,0,0,0,1.51-.57,2.84,2.84,0,0,0,.93-.68.31.31,0,0,0,0-.2.29.29,0,0,0-.12-.18.25.25,0,0,0-.2,0,.39.39,0,0,0-.2.12,4.4,4.4,0,0,1-.94.59,4.75,4.75,0,0,1-1.18.41,1.76,1.76,0,0,1-1.19-.09,1,1,0,0,1-.55-.72l-.75-3.68,3-.61a.38.38,0,0,0,.27-.13.29.29,0,0,0,0-.22.31.31,0,0,0-.13-.19.48.48,0,0,0-.3,0l-3,.61-.34-1.63a.38.38,0,0,0-.13-.26.29.29,0,0,0-.22,0,.27.27,0,0,0-.18.13.41.41,0,0,0,0,.3l.34,1.63-1,.21A.38.38,0,0,0,186.11,90.7Z"/><rect x="180.01" y="88.84" width="0.83" height="1.46" transform="translate(-14.23 37.75) rotate(-11.49)"/><path d="M189.51,105.22a.59.59,0,0,0-.24,0,.3.3,0,0,0-.17.12.28.28,0,0,0,0,.21c0,.11.12.19.29.25l5.69,1.79-4.54,3.89a.34.34,0,0,0-.17.33.32.32,0,0,0,.12.18.27.27,0,0,0,.21,0,.49.49,0,0,0,.2-.12l5.31-4.55Z"/><path d="M177.81,109.46a2.48,2.48,0,0,0-1.74-.18,6.64,6.64,0,0,0-1.49.59,2.2,2.2,0,0,0-.69.42.21.21,0,0,0,0,.19.29.29,0,0,0,.11.19.28.28,0,0,0,.2,0l.26-.12a6.52,6.52,0,0,1,1.73-.75,2.11,2.11,0,0,1,1.33.08,1,1,0,0,1,.59.7l.18.9c-.36,0-.7,0-1,0a8.47,8.47,0,0,0-.84.12,3.38,3.38,0,0,0-2,1,1.77,1.77,0,0,0-.46,1.55,1.65,1.65,0,0,0,.81,1.12,2.32,2.32,0,0,0,1.66.18,4,4,0,0,0,2.37-1.53l.16.79,1.3-.26a.49.49,0,0,0,.28-.14.29.29,0,0,0,0-.22.27.27,0,0,0-.13-.18.46.46,0,0,0-.3,0l-.74.15-.74-3.65A1.6,1.6,0,0,0,177.81,109.46Zm-.27,5a3.14,3.14,0,0,1-1.28.55,1.71,1.71,0,0,1-1.21-.1,1.08,1.08,0,0,1-.56-.77,1.14,1.14,0,0,1,.32-1,3.08,3.08,0,0,1,1.78-.9,8,8,0,0,1,.93-.13,4.85,4.85,0,0,1,.85,0l.25,1.22A5.16,5.16,0,0,1,177.54,114.47Z"/><path d="M183.11,125.43a.25.25,0,0,0,.1-.12.32.32,0,0,0,0-.17.27.27,0,0,0-.13-.18.44.44,0,0,0-.31,0l-1.5.31a.38.38,0,0,0-.27.13.29.29,0,0,0-.05.22.27.27,0,0,0,.13.18.41.41,0,0,0,.3,0l.74-.15-1.3,5-3.18-4.07.74-.15a.49.49,0,0,0,.27-.14.25.25,0,0,0,0-.22.26.26,0,0,0-.12-.18.41.41,0,0,0-.3,0l-1.52.3a.71.71,0,0,0-.21.08.27.27,0,0,0-.09.12.29.29,0,0,0,0,.16.27.27,0,0,0,.13.18.4.4,0,0,0,.3,0l.16,0,3.62,4.61-.58,2.18-1.73.36a.43.43,0,0,0-.27.13.27.27,0,0,0,0,.22.26.26,0,0,0,.12.18.48.48,0,0,0,.3,0l3.19-.65a.43.43,0,0,0,.27-.14.22.22,0,0,0,0-.21.2.2,0,0,0-.12-.18.41.41,0,0,0-.3,0l-.86.17,2.05-7.83A1.27,1.27,0,0,0,183.11,125.43Z"/><path d="M173.12,81.79l-2.17.45-1-5.14-2.17.44a.39.39,0,0,0-.27.14.24.24,0,0,0,0,.22.28.28,0,0,0,.13.18.48.48,0,0,0,.3,0l1.61-.33.94,4.58-2.18.44a.49.49,0,0,0-.27.13.29.29,0,0,0,0,.22.26.26,0,0,0,.12.18.41.41,0,0,0,.3,0l4.91-1a.49.49,0,0,0,.27-.14.29.29,0,0,0,0-.22.23.23,0,0,0-.12-.18A.5.5,0,0,0,173.12,81.79Z"/><path d="M168,42.22a.27.27,0,0,0-.18.13.25.25,0,0,0,0,.21c0,.11.11.19.28.24l5.7,1.8-4.55,3.88a.38.38,0,0,0-.17.34.27.27,0,0,0,.13.17.26.26,0,0,0,.21,0,.64.64,0,0,0,.2-.13l5.31-4.54-6.66-2.11A.84.84,0,0,0,168,42.22Z"/><path d="M158.46,64.87a3.43,3.43,0,0,0-2,1,1.85,1.85,0,0,0-.46,1.56,1.63,1.63,0,0,0,.81,1.11,2.33,2.33,0,0,0,1.66.19,4,4,0,0,0,2.37-1.54l.16.8,1.3-.27a.43.43,0,0,0,.28-.13.29.29,0,0,0,0-.22.29.29,0,0,0-.12-.18.44.44,0,0,0-.31,0l-.74.15-.74-3.65a1.53,1.53,0,0,0-.83-1.05,2.4,2.4,0,0,0-1.73-.18,6.5,6.5,0,0,0-1.5.59,2.14,2.14,0,0,0-.69.42.21.21,0,0,0,0,.19.25.25,0,0,0,.11.18.21.21,0,0,0,.2,0,.72.72,0,0,0,.26-.12A6.77,6.77,0,0,1,158.2,63a2.08,2.08,0,0,1,1.34.08,1,1,0,0,1,.58.7l.18.9c-.36,0-.69,0-1,0A8.47,8.47,0,0,0,158.46,64.87Zm2,.4.24,1.22a5.16,5.16,0,0,1-1.08,1.17,3.14,3.14,0,0,1-1.28.55,1.7,1.7,0,0,1-1.21-.11,1,1,0,0,1-.56-.76,1.14,1.14,0,0,1,.32-1,3.08,3.08,0,0,1,1.78-.9,8.06,8.06,0,0,1,.93-.14A6.17,6.17,0,0,1,160.42,65.27Z"/><path d="M178.85,92.18a.25.25,0,0,0,0,.22.27.27,0,0,0,.13.18.41.41,0,0,0,.3,0l1.62-.33.93,4.58-2.17.45a.38.38,0,0,0-.27.13.27.27,0,0,0-.05.22.27.27,0,0,0,.13.18.41.41,0,0,0,.3,0l4.9-1c.14,0,.23-.07.27-.14a.23.23,0,0,0,.05-.21.25.25,0,0,0-.13-.18.41.41,0,0,0-.3,0l-2.18.44-1-5.14-2.17.44A.42.42,0,0,0,178.85,92.18Z"/><path d="M172.44,149.3a.24.24,0,0,0-.05.22.27.27,0,0,0,.13.18.41.41,0,0,0,.3,0l1.8-.37a.49.49,0,0,0,.27-.13.29.29,0,0,0,0-.22.23.23,0,0,0-.12-.18.41.41,0,0,0-.3,0l-.63.13-.71-3.5a7.27,7.27,0,0,1,.82-1.2,1.85,1.85,0,0,1,1-.51,1.74,1.74,0,0,1,1.28.16,1.33,1.33,0,0,1,.63.91l.69,3.39-.62.12a.49.49,0,0,0-.27.14.22.22,0,0,0,0,.21.23.23,0,0,0,.12.18.39.39,0,0,0,.31,0l1.8-.36a.43.43,0,0,0,.27-.14.3.3,0,0,0,0-.21.27.27,0,0,0-.13-.19.41.41,0,0,0-.3,0l-.62.12-.69-3.42a1.79,1.79,0,0,0-.51-.93,1.93,1.93,0,0,0-.89-.54,2.68,2.68,0,0,0-2.18.45,3.56,3.56,0,0,0-.85,1l-.69-3.4-1.3.26a.49.49,0,0,0-.27.14.27.27,0,0,0,0,.21.26.26,0,0,0,.12.19.41.41,0,0,0,.3,0l.75-.15,1.45,7.14-.63.13A.38.38,0,0,0,172.44,149.3Z"/><path d="M162,117.78a.27.27,0,0,0,0,.22.29.29,0,0,0,.13.18.48.48,0,0,0,.3,0l1.8-.37c.14,0,.23-.07.27-.14a.26.26,0,0,0,0-.21.25.25,0,0,0-.13-.18.4.4,0,0,0-.3,0l-.62.12-.7-3.42a1.78,1.78,0,0,0-.5-.93,1.91,1.91,0,0,0-.9-.54,2.43,2.43,0,0,0-1.14,0,2.57,2.57,0,0,0-1,.45,3.54,3.54,0,0,0-.84,1l-.69-3.4-1.3.27a.43.43,0,0,0-.27.13.25.25,0,0,0,0,.22.23.23,0,0,0,.12.18.41.41,0,0,0,.3,0l.75-.15,1.45,7.14-.63.13a.49.49,0,0,0-.27.13.28.28,0,0,0,0,.22.29.29,0,0,0,.12.18.41.41,0,0,0,.3,0l1.81-.37a.43.43,0,0,0,.27-.13.29.29,0,0,0,0-.22.26.26,0,0,0-.12-.18.41.41,0,0,0-.3,0l-.63.13-.71-3.5a7.27,7.27,0,0,1,.82-1.2,1.84,1.84,0,0,1,1-.5,1.71,1.71,0,0,1,1.29.15,1.33,1.33,0,0,1,.63.91l.69,3.39-.62.12A.45.45,0,0,0,162,117.78Z"/><path d="M175.14,93.35a.23.23,0,0,0,.05-.21.27.27,0,0,0-.13-.19.4.4,0,0,0-.3,0l-3,.61-.33-1.63a.43.43,0,0,0-.14-.27.28.28,0,0,0-.22,0,.29.29,0,0,0-.18.12.41.41,0,0,0,0,.3l.33,1.63-1,.21a.43.43,0,0,0-.27.14.22.22,0,0,0,0,.21.26.26,0,0,0,.12.19.41.41,0,0,0,.3,0l1-.21.75,3.68a1.51,1.51,0,0,0,.82,1.1,2.46,2.46,0,0,0,1.64.14,5.35,5.35,0,0,0,1.5-.57,2.7,2.7,0,0,0,.93-.68.24.24,0,0,0,.05-.2.27.27,0,0,0-.12-.18.28.28,0,0,0-.2,0,.44.44,0,0,0-.2.13,4,4,0,0,1-.94.58,4.74,4.74,0,0,1-1.17.42,1.79,1.79,0,0,1-1.2-.09,1.07,1.07,0,0,1-.55-.73l-.75-3.67,3-.61A.38.38,0,0,0,175.14,93.35Z"/><path d="M166,60.86a3,3,0,0,0-2.23,2,3.27,3.27,0,0,0-.08,1.61,3.14,3.14,0,0,0,.7,1.43,3,3,0,0,0,1.32.92,2.93,2.93,0,0,0,1.52.1,3,3,0,0,0,2.18-1.81l.22,1.1,1.3-.27a.35.35,0,0,0,.27-.14.26.26,0,0,0,.05-.21.27.27,0,0,0-.13-.18.41.41,0,0,0-.3,0l-.74.15-1.57-7.7-1.29.27a.43.43,0,0,0-.28.14.25.25,0,0,0,0,.21.28.28,0,0,0,.12.19.5.5,0,0,0,.31,0l.74-.15.63,3.11A3,3,0,0,0,166,60.86Zm3.05,2.56a2.44,2.44,0,0,1-.35,1.92,2.31,2.31,0,0,1-1.54,1.07,2.35,2.35,0,0,1-1.85-.38,2.63,2.63,0,0,1-.72-3.55,2.35,2.35,0,0,1,1.55-1.06,2.32,2.32,0,0,1,1.84.37A2.46,2.46,0,0,1,169.05,63.42Z"/><path d="M184.9,105.11a.26.26,0,0,0-.05.21.27.27,0,0,0,.13.19.44.44,0,0,0,.31,0l.74-.15.63,3.11a3,3,0,0,0-2.71-.81,2.85,2.85,0,0,0-1.36.69,2.89,2.89,0,0,0-.86,1.36,3.15,3.15,0,0,0,.62,3,3,3,0,0,0,1.32.91,2.83,2.83,0,0,0,1.52.1,3,3,0,0,0,2.18-1.81l.22,1.1,1.3-.27a.4.4,0,0,0,.27-.13.29.29,0,0,0,.05-.22.27.27,0,0,0-.13-.18.41.41,0,0,0-.3,0l-.74.15-1.57-7.69-1.3.26A.43.43,0,0,0,184.9,105.11Zm1.76,7a2.39,2.39,0,0,1-3.39.69,2.47,2.47,0,0,1-1.07-1.62,2.43,2.43,0,0,1,.35-1.92,2.33,2.33,0,0,1,1.55-1.07,2.29,2.29,0,0,1,1.84.38,2.47,2.47,0,0,1,1.07,1.63A2.42,2.42,0,0,1,186.66,112.15Z"/><path d="M198,161a.23.23,0,0,0,.18-.12.27.27,0,0,0,0-.21c0-.11-.11-.19-.28-.24l-5.7-1.8,4.55-3.88c.14-.12.19-.23.17-.34a.36.36,0,0,0-.12-.18.34.34,0,0,0-.22,0,.67.67,0,0,0-.2.12l-5.3,4.55,6.65,2.11A.56.56,0,0,0,198,161Z"/><path d="M200.69,93l-2.17.44L197,85.75l-2.15.44a.41.41,0,0,0-.27.14.26.26,0,0,0-.05.21.29.29,0,0,0,.13.19.5.5,0,0,0,.31,0l1.59-.33L198,93.56l-2.17.44a.43.43,0,0,0-.27.14.26.26,0,0,0-.05.21.27.27,0,0,0,.13.18.41.41,0,0,0,.3,0l4.9-1a.49.49,0,0,0,.28-.14.26.26,0,0,0,0-.21A.29.29,0,0,0,201,93,.45.45,0,0,0,200.69,93Z"/><path d="M188,139.18a.58.58,0,0,0-.23,0,.32.32,0,0,0-.18.13.25.25,0,0,0,0,.21c0,.11.12.19.28.24l5.7,1.8L189,145.4c-.13.11-.19.23-.16.33a.23.23,0,0,0,.12.18.22.22,0,0,0,.21,0,.57.57,0,0,0,.2-.12l5.31-4.54Z"/><path d="M194.45,20.25a2.71,2.71,0,0,0-2-.29l-3.22.66a.38.38,0,0,0-.26.13.24.24,0,0,0-.05.22.27.27,0,0,0,.13.18.44.44,0,0,0,.29,0l.75-.15,1.34,6.58-.75.15a.42.42,0,0,0-.26.14.26.26,0,0,0,0,.21.27.27,0,0,0,.13.18.41.41,0,0,0,.3,0l3.19-.65a.45.45,0,0,0,.27-.14.29.29,0,0,0,.05-.22.27.27,0,0,0-.13-.18.48.48,0,0,0-.3,0l-1.9.39-.53-2.6,1.74-.36a3.19,3.19,0,0,0,.92-.31,3.75,3.75,0,0,0,.91-.75,2.07,2.07,0,0,0,.43-.79,2,2,0,0,0,0-1A2.13,2.13,0,0,0,194.45,20.25Zm.4,2.39a2,2,0,0,1-.65.83,2.59,2.59,0,0,1-1.09.5l-1.77.36-.7-3.43,2-.4a2.1,2.1,0,0,1,1.53.23,1.58,1.58,0,0,1,.79,1.06A1.48,1.48,0,0,1,194.85,22.64Z"/><path d="M178.58,25.35a.42.42,0,0,0,.13.27.29.29,0,0,0,.22.05.27.27,0,0,0,.19-.13.42.42,0,0,0,0-.3l-.5-2.47L172.43,24l.5,2.47a.42.42,0,0,0,.14.27.29.29,0,0,0,.22.05.27.27,0,0,0,.18-.13.48.48,0,0,0,0-.3l-.39-1.92,2.26-.46,1.34,6.59-1.43.29A.49.49,0,0,0,175,31a.29.29,0,0,0-.05.22.27.27,0,0,0,.13.18.41.41,0,0,0,.3,0l3.43-.7a.43.43,0,0,0,.27-.13.29.29,0,0,0,0-.22.27.27,0,0,0-.13-.18.48.48,0,0,0-.3,0l-1.44.29-1.34-6.58,2.27-.46Z"/><path d="M179.4,165.06a2.9,2.9,0,0,0,1.92-1.27,2.81,2.81,0,0,0,.44-2.21,2.87,2.87,0,0,0-.67-1.35,2.66,2.66,0,0,0-1.28-.85,3.17,3.17,0,0,0-1.59-.07,2.84,2.84,0,0,0-1.28.57,3.6,3.6,0,0,0-.87,1.12l-.21-1-1.3.27a.42.42,0,0,0-.26.13.25.25,0,0,0-.05.22.29.29,0,0,0,.13.19.48.48,0,0,0,.3,0l.74-.15,1.45,7.11-.74.16a.38.38,0,0,0-.27.13.27.27,0,0,0-.05.22.27.27,0,0,0,.13.18.48.48,0,0,0,.3,0l2.64-.54a.43.43,0,0,0,.27-.14.25.25,0,0,0,0-.21.22.22,0,0,0-.12-.18.41.41,0,0,0-.3,0l-1.35.27-.67-3.32A3,3,0,0,0,179.4,165.06Zm-3-2.39a2.24,2.24,0,0,1,.36-1.77,2.53,2.53,0,0,1,3.41-.7,2.33,2.33,0,0,1,.66,3.27,2.5,2.5,0,0,1-3.4.69A2.22,2.22,0,0,1,176.41,162.67Z"/><path d="M185.56,71.25l-2.14.43a.49.49,0,0,0-.28.14.29.29,0,0,0,0,.22.24.24,0,0,0,.13.18.41.41,0,0,0,.3,0l1.6-.32,1.45,7.13-2.18.45a.38.38,0,0,0-.26.13.25.25,0,0,0,0,.22.27.27,0,0,0,.13.18.4.4,0,0,0,.3,0l4.9-1a.41.41,0,0,0,.27-.14.26.26,0,0,0,.05-.21.27.27,0,0,0-.13-.18.41.41,0,0,0-.3,0l-2.18.44Z"/><path d="M169.44,132.21a2.92,2.92,0,0,0,2.84,1,3,3,0,0,0,2.18-1.81l.22,1.1,1.3-.27a.42.42,0,0,0,.27-.13.25.25,0,0,0,.05-.22.27.27,0,0,0-.13-.18.41.41,0,0,0-.3,0l-.74.15-1.57-7.7-1.29.27a.43.43,0,0,0-.28.14.25.25,0,0,0,0,.21.28.28,0,0,0,.12.19.44.44,0,0,0,.31,0l.74-.15.63,3.11a3,3,0,0,0-2.7-.82,3,3,0,0,0-2.23,2,3.27,3.27,0,0,0-.08,1.61A3.14,3.14,0,0,0,169.44,132.21Zm.2-3.46a2.41,2.41,0,0,1,3.39-.7,2.6,2.6,0,0,1,.72,3.55,2.31,2.31,0,0,1-1.54,1.07,2.35,2.35,0,0,1-1.85-.38,2.49,2.49,0,0,1-1.07-1.63A2.45,2.45,0,0,1,169.64,128.75Z"/><path d="M160.33,101.27a.54.54,0,0,0,.23,0,.23.23,0,0,0,.18-.12.27.27,0,0,0,0-.21c0-.11-.11-.19-.28-.24l-5.7-1.8,4.55-3.88c.13-.12.19-.23.17-.34a.32.32,0,0,0-.13-.18.3.3,0,0,0-.21,0,.67.67,0,0,0-.2.12l-5.3,4.55Z"/><path d="M160.38,79,160,77.4a.38.38,0,0,0-.13-.26.29.29,0,0,0-.22,0,.31.31,0,0,0-.19.13.48.48,0,0,0,0,.3l.34,1.63-1,.21a.38.38,0,0,0-.26.13.29.29,0,0,0-.05.22.27.27,0,0,0,.13.18.41.41,0,0,0,.3,0l1-.21.75,3.67a1.5,1.5,0,0,0,.82,1.11,2.49,2.49,0,0,0,1.63.14,5.29,5.29,0,0,0,1.51-.57,2.84,2.84,0,0,0,.93-.68.31.31,0,0,0,.05-.2.29.29,0,0,0-.12-.18.25.25,0,0,0-.2,0,.39.39,0,0,0-.2.12,4.4,4.4,0,0,1-.94.59,4.75,4.75,0,0,1-1.18.41,1.8,1.8,0,0,1-1.2-.09,1,1,0,0,1-.54-.72l-.75-3.68,3-.61a.4.4,0,0,0,.27-.13.29.29,0,0,0,.05-.22.31.31,0,0,0-.13-.19.48.48,0,0,0-.3,0Z"/><path d="M171.55,58.41a.56.56,0,0,0-.23,0,.23.23,0,0,0-.18.12.28.28,0,0,0,0,.21c0,.11.12.19.29.24l5.7,1.8-4.55,3.88c-.14.12-.19.23-.17.34a.36.36,0,0,0,.12.18.32.32,0,0,0,.21,0,.51.51,0,0,0,.21-.13l5.3-4.54Z"/><path d="M166.85,116.55a3.29,3.29,0,0,0,2.56.44,4.89,4.89,0,0,0,1.6-.62,3.09,3.09,0,0,0,1-.84.39.39,0,0,0,.06-.24.36.36,0,0,0-.12-.18.24.24,0,0,0-.2,0,.39.39,0,0,0-.2.14,3.25,3.25,0,0,1-1,.76,4.36,4.36,0,0,1-1.25.47,2.82,2.82,0,0,1-2-.27,2.76,2.76,0,0,1-1.25-1.54l5.64-1.15a3.19,3.19,0,0,0-1.33-2.12,3.33,3.33,0,0,0-4.45.88,2.8,2.8,0,0,0-.47,2.25A3.07,3.07,0,0,0,166.85,116.55Zm-.34-4.15a2.58,2.58,0,0,1,1.55-.91,2.64,2.64,0,0,1,1.78.23A2.46,2.46,0,0,1,171,113l-5.07,1A2.48,2.48,0,0,1,166.51,112.4Z"/><rect x="168.63" y="74.34" width="0.83" height="1.46" transform="translate(-11.6 35.36) rotate(-11.55)"/><path d="M166.71,91.26a.31.31,0,0,0-.12-.16.23.23,0,0,0-.21,0,.21.21,0,0,0-.15.07.55.55,0,0,0-.1.23l-2.51,10.42a.49.49,0,0,0,0,.23.25.25,0,0,0,.12.17.3.3,0,0,0,.21,0c.12,0,.19-.13.24-.3l2.51-10.43A.53.53,0,0,0,166.71,91.26Z"/></g></g></svg>