<svg width="359" height="34" viewBox="0 0 359 34" fill="none" xmlns="http://www.w3.org/2000/svg">
<path d="M16.9492 29.6523L0.132812 22.4844V18.0508L16.9492 10.9023V16.2148L6.75391 20.0039L5.69922 20.2578V20.375L6.75391 20.6289L16.9492 24.3398V29.6523ZM33.3945 31.4102C30.6341 31.4102 28.2318 30.8372 26.1875 29.6914C24.1432 28.5326 22.5612 26.8984 21.4414 24.7891C20.3346 22.6667 19.7812 20.1602 19.7812 17.2695V16.3125C19.7812 13.5521 20.3151 11.1107 21.3828 8.98828C22.4635 6.85286 24 5.17969 25.9922 3.96875C27.9844 2.75781 30.3542 2.15234 33.1016 2.15234C35.0286 2.15234 36.832 2.42578 38.5117 2.97266C40.2044 3.51953 41.7148 4.35286 43.043 5.47266V12.3477H38.8047L38.2188 8.03125C37.7891 7.71875 37.3203 7.45182 36.8125 7.23047C36.3047 7.00911 35.7513 6.83984 35.1523 6.72266C34.5664 6.60547 33.9284 6.54688 33.2383 6.54688C31.6237 6.54688 30.237 6.94401 29.0781 7.73828C27.9193 8.53255 27.0273 9.65885 26.4023 11.1172C25.7904 12.5625 25.4844 14.2812 25.4844 16.2734V17.2695C25.4844 19.2617 25.8099 20.987 26.4609 22.4453C27.112 23.9036 28.0365 25.0365 29.2344 25.8438C30.4323 26.638 31.8516 27.0352 33.4922 27.0352C34.3125 27.0352 35.1328 26.944 35.9531 26.7617C36.7865 26.5664 37.5417 26.319 38.2188 26.0195L38.8047 22.0156H43.043V28.8125C41.9362 29.5417 40.556 30.1602 38.9023 30.668C37.2487 31.1628 35.4128 31.4102 33.3945 31.4102ZM45.5039 31V27.582L48.2578 26.9961V4.55469L45.2109 3.96875V0.53125H53.9609V26.9961L56.7148 27.582V31H45.5039ZM65.6602 31.4102C63.5638 31.4102 61.8971 30.8503 60.6602 29.7305C59.4232 28.5977 58.8047 27.0612 58.8047 25.1211C58.8047 23.793 59.1628 22.6276 59.8789 21.625C60.6081 20.6224 61.6758 19.8346 63.082 19.2617C64.5013 18.6888 66.2461 18.4023 68.3164 18.4023H71.1094V16.8398C71.1094 15.8242 70.8099 15.0039 70.2109 14.3789C69.625 13.7409 68.7396 13.4219 67.5547 13.4219C66.9427 13.4219 66.3958 13.5 65.9141 13.6562C65.4323 13.7995 64.9896 14.0078 64.5859 14.2812L64.1367 17.0742H60.0352L59.957 11.5859C61.0638 10.9609 62.2617 10.4531 63.5508 10.0625C64.8398 9.67188 66.2786 9.47656 67.8672 9.47656C70.6276 9.47656 72.8086 10.1211 74.4102 11.4102C76.0117 12.6862 76.8125 14.5156 76.8125 16.8984V25.6094C76.8125 25.8958 76.8125 26.1823 76.8125 26.4688C76.8255 26.7422 76.8516 27.0091 76.8906 27.2695L79.0977 27.582V31H72.0273C71.8841 30.6354 71.7409 30.2448 71.5977 29.8281C71.4544 29.4115 71.3503 28.9948 71.2852 28.5781C70.6081 29.4375 69.8073 30.1276 68.8828 30.6484C67.9714 31.1562 66.8971 31.4102 65.6602 31.4102ZM67.1836 27.1914C67.9779 27.1914 68.7331 27.0156 69.4492 26.6641C70.1654 26.2995 70.7188 25.8242 71.1094 25.2383V21.8984H68.2969C67.0469 21.8984 66.0964 22.1849 65.4453 22.7578C64.8073 23.3307 64.4883 24.0208 64.4883 24.8281C64.4883 25.5833 64.7227 26.1693 65.1914 26.5859C65.6732 26.9896 66.3372 27.1914 67.1836 27.1914ZM89.4688 31.4102C87.2422 31.4102 85.4909 30.707 84.2148 29.3008C82.9518 27.8815 82.3203 25.681 82.3203 22.6992V13.8906L79.9961 13.3047V9.86719H82.3203H88.0234V22.7383C88.0234 24.2487 88.2839 25.3359 88.8047 26C89.3385 26.651 90.1393 26.9766 91.207 26.9766C92.0534 26.9766 92.8021 26.8138 93.4531 26.4883C94.1042 26.1497 94.638 25.6745 95.0547 25.0625V13.8906L92.5352 13.3047V9.86719H95.0547H100.758V26.9961L103.297 27.582V31H95.7578L95.3672 28.3242C94.7031 29.3138 93.8698 30.0755 92.8672 30.6094C91.8646 31.1432 90.7318 31.4102 89.4688 31.4102ZM113.551 31.4102C111.871 31.4102 110.426 30.9805 109.215 30.1211C108.017 29.2487 107.099 28.0378 106.461 26.4883C105.823 24.9258 105.504 23.1029 105.504 21.0195V20.6094C105.504 18.3828 105.823 16.4362 106.461 14.7695C107.112 13.1029 108.036 11.8073 109.234 10.8828C110.432 9.94531 111.865 9.47656 113.531 9.47656C114.69 9.47656 115.706 9.71094 116.578 10.1797C117.451 10.6354 118.206 11.2865 118.844 12.1328V4.55469L115.797 3.96875V0.53125H118.844H124.547V26.9961L127.281 27.582V31H119.605L119.176 28.4219C118.512 29.3984 117.717 30.1406 116.793 30.6484C115.882 31.1562 114.801 31.4102 113.551 31.4102ZM115.25 26.9766C116.044 26.9766 116.741 26.8073 117.34 26.4688C117.939 26.1302 118.44 25.6419 118.844 25.0039V16.0391C118.453 15.362 117.958 14.8411 117.359 14.4766C116.76 14.099 116.07 13.9102 115.289 13.9102C114.339 13.9102 113.557 14.1966 112.945 14.7695C112.346 15.3294 111.904 16.1107 111.617 17.1133C111.344 18.1159 111.207 19.2812 111.207 20.6094V21.0195C111.207 22.8685 111.52 24.3268 112.145 25.3945C112.77 26.4492 113.805 26.9766 115.25 26.9766ZM128.922 31V27.582L131.676 26.9961V13.8906L128.629 13.3047V9.86719H137.379V26.9961L140.113 27.582V31H128.922ZM131.48 5.39453V0.53125H137.379V5.39453H131.48ZM149.098 31.4102C147.001 31.4102 145.335 30.8503 144.098 29.7305C142.861 28.5977 142.242 27.0612 142.242 25.1211C142.242 23.793 142.6 22.6276 143.316 21.625C144.046 20.6224 145.113 19.8346 146.52 19.2617C147.939 18.6888 149.684 18.4023 151.754 18.4023H154.547V16.8398C154.547 15.8242 154.247 15.0039 153.648 14.3789C153.062 13.7409 152.177 13.4219 150.992 13.4219C150.38 13.4219 149.833 13.5 149.352 13.6562C148.87 13.7995 148.427 14.0078 148.023 14.2812L147.574 17.0742H143.473L143.395 11.5859C144.501 10.9609 145.699 10.4531 146.988 10.0625C148.277 9.67188 149.716 9.47656 151.305 9.47656C154.065 9.47656 156.246 10.1211 157.848 11.4102C159.449 12.6862 160.25 14.5156 160.25 16.8984V25.6094C160.25 25.8958 160.25 26.1823 160.25 26.4688C160.263 26.7422 160.289 27.0091 160.328 27.2695L162.535 27.582V31H155.465C155.322 30.6354 155.178 30.2448 155.035 29.8281C154.892 29.4115 154.788 28.9948 154.723 28.5781C154.046 29.4375 153.245 30.1276 152.32 30.6484C151.409 31.1562 150.335 31.4102 149.098 31.4102ZM150.621 27.1914C151.415 27.1914 152.171 27.0156 152.887 26.6641C153.603 26.2995 154.156 25.8242 154.547 25.2383V21.8984H151.734C150.484 21.8984 149.534 22.1849 148.883 22.7578C148.245 23.3307 147.926 24.0208 147.926 24.8281C147.926 25.5833 148.16 26.1693 148.629 26.5859C149.111 26.9896 149.775 27.1914 150.621 27.1914ZM162.887 33.4414L174.625 2.5625H179.879L168.141 33.4414H162.887ZM193.902 31.4102C191.09 31.4102 188.72 30.7982 186.793 29.5742C184.879 28.3372 183.427 26.6315 182.438 24.457C181.461 22.2826 180.973 19.7891 180.973 16.9766V16.6055C180.973 13.7669 181.48 11.2669 182.496 9.10547C183.525 6.93099 184.977 5.23177 186.852 4.00781C188.727 2.77083 190.927 2.15234 193.453 2.15234C195.406 2.15234 197.086 2.42578 198.492 2.97266C199.911 3.51953 201.168 4.26823 202.262 5.21875V10.7461H200.27L200.074 6.21484C199.501 5.78516 198.896 5.42057 198.258 5.12109C197.633 4.82161 196.93 4.59375 196.148 4.4375C195.38 4.26823 194.482 4.18359 193.453 4.18359C191.383 4.18359 189.586 4.71094 188.062 5.76562C186.552 6.80729 185.38 8.25911 184.547 10.1211C183.727 11.9701 183.316 14.1185 183.316 16.5664V16.9766C183.316 19.5026 183.733 21.6966 184.566 23.5586C185.413 25.4206 186.624 26.8594 188.199 27.875C189.788 28.8906 191.695 29.3984 193.922 29.3984C195.12 29.3984 196.272 29.2487 197.379 28.9492C198.499 28.6497 199.443 28.2526 200.211 27.7578L200.406 23.4609H202.379V29.125C201.22 29.8802 199.911 30.4531 198.453 30.8438C197.008 31.2214 195.491 31.4102 193.902 31.4102ZM212.906 31.4102C210.901 31.4102 209.332 30.8763 208.199 29.8086C207.066 28.7409 206.5 27.2956 206.5 25.4727C206.5 24.1706 206.878 23.0312 207.633 22.0547C208.388 21.0651 209.456 20.2969 210.836 19.75C212.229 19.2031 213.876 18.9297 215.777 18.9297H220.152V16.5078C220.152 14.9844 219.697 13.7604 218.785 12.8359C217.887 11.8984 216.526 11.4297 214.703 11.4297C213.674 11.4297 212.75 11.599 211.93 11.9375C211.122 12.263 210.419 12.6797 209.82 13.1875L209.625 16.4102H207.691V11.9961C208.603 11.2148 209.638 10.6029 210.797 10.1602C211.956 9.70443 213.271 9.47656 214.742 9.47656C217.229 9.47656 219.143 10.1016 220.484 11.3516C221.826 12.6016 222.496 14.3333 222.496 16.5469V26.7422C222.496 27.1589 222.509 27.5755 222.535 27.9922C222.561 28.3958 222.607 28.7995 222.672 29.2031L225.191 29.3008V31H220.582C220.426 30.2318 220.315 29.6133 220.25 29.1445C220.198 28.6758 220.165 28.1484 220.152 27.5625C219.384 28.6953 218.368 29.6198 217.105 30.3359C215.842 31.0521 214.443 31.4102 212.906 31.4102ZM213.18 29.3594C214.625 29.3594 215.992 28.9818 217.281 28.2266C218.583 27.4583 219.54 26.4427 220.152 25.1797V20.7266H215.758C213.596 20.7266 211.904 21.1953 210.68 22.1328C209.456 23.0573 208.844 24.1966 208.844 25.5508C208.844 26.6836 209.234 27.6016 210.016 28.3047C210.797 29.0078 211.852 29.3594 213.18 29.3594ZM228.258 31V29.3008L231.441 29.0469V11.8398L228.258 11.5859V9.86719H233.512L233.707 13.6562C234.384 12.3281 235.296 11.2995 236.441 10.5703C237.587 9.84115 238.954 9.47656 240.543 9.47656C242.835 9.47656 244.579 10.1797 245.777 11.5859C246.975 12.9792 247.574 15.1667 247.574 18.1484V29.0469L250.758 29.3008V31H242.047V29.3008L245.23 29.0469V18.168C245.23 15.7201 244.781 13.9948 243.883 12.9922C242.984 11.9896 241.702 11.4883 240.035 11.4883C238.29 11.4883 236.91 11.9766 235.895 12.9531C234.879 13.9297 234.176 15.2057 233.785 16.7812V29.0469L236.969 29.3008V31H228.258ZM261.559 31.3711C260.074 31.3711 258.922 30.9154 258.102 30.0039C257.281 29.0794 256.871 27.5951 256.871 25.5508V11.7617H253.219V9.86719H256.871V4.4375H259.215V9.86719H264.137V11.7617H259.215V25.5508C259.215 26.957 259.462 27.9727 259.957 28.5977C260.465 29.2096 261.135 29.5156 261.969 29.5156C262.411 29.5156 262.848 29.4896 263.277 29.4375C263.707 29.3724 264.15 29.3073 264.605 29.2422L264.957 30.9219C264.488 31.0651 263.954 31.1758 263.355 31.2539C262.757 31.332 262.158 31.3711 261.559 31.3711ZM268.004 31V29.3008L271.188 29.0469V11.8398L268.004 11.5859V9.86719H273.531V29.0469L276.715 29.3008V31H268.004ZM270.914 3.91016V0.53125H273.531V3.91016H270.914ZM286.969 31.4102C284.964 31.4102 283.395 30.8763 282.262 29.8086C281.129 28.7409 280.562 27.2956 280.562 25.4727C280.562 24.1706 280.94 23.0312 281.695 22.0547C282.451 21.0651 283.518 20.2969 284.898 19.75C286.292 19.2031 287.939 18.9297 289.84 18.9297H294.215V16.5078C294.215 14.9844 293.759 13.7604 292.848 12.8359C291.949 11.8984 290.589 11.4297 288.766 11.4297C287.737 11.4297 286.812 11.599 285.992 11.9375C285.185 12.263 284.482 12.6797 283.883 13.1875L283.688 16.4102H281.754V11.9961C282.665 11.2148 283.701 10.6029 284.859 10.1602C286.018 9.70443 287.333 9.47656 288.805 9.47656C291.292 9.47656 293.206 10.1016 294.547 11.3516C295.888 12.6016 296.559 14.3333 296.559 16.5469V26.7422C296.559 27.1589 296.572 27.5755 296.598 27.9922C296.624 28.3958 296.669 28.7995 296.734 29.2031L299.254 29.3008V31H294.645C294.488 30.2318 294.378 29.6133 294.312 29.1445C294.26 28.6758 294.228 28.1484 294.215 27.5625C293.447 28.6953 292.431 29.6198 291.168 30.3359C289.905 31.0521 288.505 31.4102 286.969 31.4102ZM287.242 29.3594C288.688 29.3594 290.055 28.9818 291.344 28.2266C292.646 27.4583 293.603 26.4427 294.215 25.1797V20.7266H289.82C287.659 20.7266 285.966 21.1953 284.742 22.1328C283.518 23.0573 282.906 24.1966 282.906 25.5508C282.906 26.6836 283.297 27.6016 284.078 28.3047C284.859 29.0078 285.914 29.3594 287.242 29.3594ZM302.32 31V29.3008L305.504 29.0469V11.8398L302.32 11.5859V9.86719H307.574L307.77 13.6562C308.447 12.3281 309.358 11.2995 310.504 10.5703C311.65 9.84115 313.017 9.47656 314.605 9.47656C316.897 9.47656 318.642 10.1797 319.84 11.5859C321.038 12.9792 321.637 15.1667 321.637 18.1484V29.0469L324.82 29.3008V31H316.109V29.3008L319.293 29.0469V18.168C319.293 15.7201 318.844 13.9948 317.945 12.9922C317.047 11.9896 315.764 11.4883 314.098 11.4883C312.353 11.4883 310.973 11.9766 309.957 12.9531C308.941 13.9297 308.238 15.2057 307.848 16.7812V29.0469L311.031 29.3008V31H302.32ZM328.277 31V29.3008L331.461 29.0469V11.8398L328.277 11.5859V9.86719H333.805V29.0469L336.988 29.3008V31H328.277ZM331.188 3.91016V0.53125H333.805V3.91016H331.188ZM341.07 29.8281V24.5547L351.305 20.7266L352.496 20.4727V20.3555L351.305 20.0234L341.07 16.332V11.0781L358.082 18.2266V22.6602L341.07 29.8281Z" fill="black"/>
</svg>
