<svg width="105" height="32" viewBox="0 0 105 32" fill="none" xmlns="http://www.w3.org/2000/svg">
<path d="M16.9492 27.6523L0.132812 20.4844V16.0508L16.9492 8.90234V14.2148L6.75391 18.0039L5.69922 18.2578V18.375L6.75391 18.6289L16.9492 22.3398V27.6523ZM33.3945 29.4102C30.6341 29.4102 28.2318 28.8372 26.1875 27.6914C24.1432 26.5326 22.5612 24.8984 21.4414 22.7891C20.3346 20.6667 19.7812 18.1602 19.7812 15.2695V14.3125C19.7812 11.5521 20.3151 9.11068 21.3828 6.98828C22.4635 4.85286 24 3.17969 25.9922 1.96875C27.9844 0.757812 30.3542 0.152344 33.1016 0.152344C35.0286 0.152344 36.832 0.425781 38.5117 0.972656C40.2044 1.51953 41.7148 2.35286 43.043 3.47266V10.3477H38.8047L38.2188 6.03125C37.7891 5.71875 37.3203 5.45182 36.8125 5.23047C36.3047 5.00911 35.7513 4.83984 35.1523 4.72266C34.5664 4.60547 33.9284 4.54688 33.2383 4.54688C31.6237 4.54688 30.237 4.94401 29.0781 5.73828C27.9193 6.53255 27.0273 7.65885 26.4023 9.11719C25.7904 10.5625 25.4844 12.2812 25.4844 14.2734V15.2695C25.4844 17.2617 25.8099 18.987 26.4609 20.4453C27.112 21.9036 28.0365 23.0365 29.2344 23.8438C30.4323 24.638 31.8516 25.0352 33.4922 25.0352C34.3125 25.0352 35.1328 24.944 35.9531 24.7617C36.7865 24.5664 37.5417 24.319 38.2188 24.0195L38.8047 20.0156H43.043V26.8125C41.9362 27.5417 40.556 28.1602 38.9023 28.668C37.2487 29.1628 35.4128 29.4102 33.3945 29.4102ZM44.1367 31.4414L55.875 0.5625H61.1289L49.3906 31.4414H44.1367ZM75.1523 29.4102C72.3398 29.4102 69.9701 28.7982 68.043 27.5742C66.1289 26.3372 64.6771 24.6315 63.6875 22.457C62.7109 20.2826 62.2227 17.7891 62.2227 14.9766V14.6055C62.2227 11.7669 62.7305 9.26693 63.7461 7.10547C64.7747 4.93099 66.2266 3.23177 68.1016 2.00781C69.9766 0.770833 72.1771 0.152344 74.7031 0.152344C76.6562 0.152344 78.3359 0.425781 79.7422 0.972656C81.1615 1.51953 82.418 2.26823 83.5117 3.21875V8.74609H81.5195L81.3242 4.21484C80.7513 3.78516 80.1458 3.42057 79.5078 3.12109C78.8828 2.82161 78.1797 2.59375 77.3984 2.4375C76.6302 2.26823 75.7318 2.18359 74.7031 2.18359C72.6328 2.18359 70.8359 2.71094 69.3125 3.76562C67.8021 4.80729 66.6302 6.25911 65.7969 8.12109C64.9766 9.97005 64.5664 12.1185 64.5664 14.5664V14.9766C64.5664 17.5026 64.9831 19.6966 65.8164 21.5586C66.6628 23.4206 67.8737 24.8594 69.4492 25.875C71.0378 26.8906 72.9453 27.3984 75.1719 27.3984C76.3698 27.3984 77.5221 27.2487 78.6289 26.9492C79.7487 26.6497 80.6927 26.2526 81.4609 25.7578L81.6562 21.4609H83.6289V27.125C82.4701 27.8802 81.1615 28.4531 79.7031 28.8438C78.2578 29.2214 76.7409 29.4102 75.1523 29.4102ZM87.9844 27.8281V22.5547L98.2188 18.7266L99.4102 18.4727V18.3555L98.2188 18.0234L87.9844 14.332V9.07812L104.996 16.2266V20.6602L87.9844 27.8281Z" fill="black"/>
</svg>
