<?xml version="1.0" standalone="no"?>
<!DOCTYPE svg PUBLIC "-//W3C//DTD SVG 20010904//EN"
 "http://www.w3.org/TR/2001/REC-SVG-20010904/DTD/svg10.dtd">
<svg version="1.0" xmlns="http://www.w3.org/2000/svg"
 width="700.000000pt" height="700.000000pt" viewBox="0 0 700.000000 700.000000"
 preserveAspectRatio="xMidYMid meet">
<metadata>
Created by potrace 1.14, written by Peter Selinger 2001-2017
</metadata>
<g transform="translate(0.000000,700.000000) scale(0.100000,-0.100000)"
fill="#000000" stroke="none">
<path d="M3275 5935 c-646 -79 -1169 -394 -1510 -910 -198 -299 -313 -621
-372 -1035 -22 -159 -26 -764 -5 -930 99 -794 472 -1382 1092 -1717 409 -222
932 -308 1535 -252 418 39 834 168 1182 367 l83 47 0 568 0 567 -359 0 -359 0
-17 -112 c-9 -62 -31 -211 -49 -332 l-32 -218 -55 -24 c-93 -39 -287 -94 -409
-116 -142 -26 -461 -31 -580 -9 -254 46 -462 154 -640 331 -207 206 -343 480
-405 817 -56 301 -56 785 0 1087 112 604 447 1001 944 1118 127 29 419 36 566
13 194 -30 345 -83 498 -174 47 -28 80 -54 82 -66 5 -23 95 -682 95 -696 0 -5
145 -9 360 -9 l360 0 0 574 0 574 -62 50 c-339 268 -796 440 -1307 492 -140
14 -501 11 -636 -5z"/>
</g>
</svg>
